<svg xmlns="http://www.w3.org/2000/svg" xmlns:xlink="http://www.w3.org/1999/xlink" width="500" zoomAndPan="magnify" viewBox="0 0 375 374.999991" height="500" preserveAspectRatio="xMidYMid meet" version="1.0"><defs><g/><clipPath id="ebea9d8c04"><path d="M 190.195312 93.929688 L 370.945312 93.929688 L 370.945312 240 L 190.195312 240 Z M 190.195312 93.929688 " clip-rule="nonzero"/></clipPath><clipPath id="389e6ea62b"><path d="M 4.050781 119 L 184.800781 119 L 184.800781 264.949219 L 4.050781 264.949219 Z M 4.050781 119 " clip-rule="nonzero"/></clipPath><clipPath id="d96f466326"><path d="M 69.761719 64.347656 L 300 64.347656 L 300 294.597656 L 69.761719 294.597656 Z M 69.761719 64.347656 " clip-rule="nonzero"/></clipPath><clipPath id="e493a69231"><path d="M 291.363281 93.929688 L 332.613281 93.929688 L 332.613281 114.929688 L 291.363281 114.929688 Z M 291.363281 93.929688 " clip-rule="nonzero"/></clipPath><clipPath id="eb0c40b1f5"><path d="M 38.867188 240.632812 L 86.117188 240.632812 L 86.117188 264.632812 L 38.867188 264.632812 Z M 38.867188 240.632812 " clip-rule="nonzero"/></clipPath></defs><rect x="-37.5" width="450" fill="#ffffff" y="-37.499999" height="449.999989" fill-opacity="1"/><rect x="-37.5" width="450" fill="#ffffff" y="-37.499999" height="449.999989" fill-opacity="1"/><g clip-path="url(#ebea9d8c04)"><path fill="#000000" d="M 249.761719 239.878906 C 228.34375 239.878906 208.230469 237.351562 190.757812 232.914062 C 202.785156 234.742188 215.644531 235.722656 229.015625 235.722656 C 296.027344 235.722656 350.355469 210.984375 350.355469 180.464844 C 350.355469 159.707031 325.207031 141.621094 288.015625 132.167969 C 336.285156 139.46875 371.097656 160.191406 371.097656 184.628906 C 371.097656 215.140625 316.773438 239.878906 249.761719 239.878906 Z M 252.011719 123.003906 L 252.011719 122.554688 C 278.765625 122.554688 280.703125 118.214844 280.703125 93.851562 L 281.152344 93.851562 C 281.152344 118.214844 283.105469 122.554688 309.855469 122.554688 L 309.855469 123.003906 C 283.105469 123.003906 281.152344 127.332031 281.152344 151.695312 L 280.703125 151.695312 C 280.703125 127.332031 278.765625 123.003906 252.011719 123.003906 " fill-opacity="1" fill-rule="evenodd"/></g><g clip-path="url(#389e6ea62b)"><path fill="#000000" d="M 125.234375 119.003906 C 146.652344 119.003906 166.761719 121.527344 184.238281 125.96875 C 172.210938 124.140625 159.351562 123.15625 145.980469 123.15625 C 78.96875 123.15625 24.640625 147.894531 24.640625 178.417969 C 24.640625 199.175781 49.789062 217.257812 86.976562 226.710938 C 38.707031 219.410156 3.894531 198.6875 3.894531 174.25 C 3.894531 143.742188 58.222656 119.003906 125.234375 119.003906 Z M 122.984375 235.878906 L 122.984375 236.324219 C 96.230469 236.324219 94.289062 240.664062 94.289062 265.03125 L 93.84375 265.03125 C 93.84375 240.664062 91.890625 236.324219 65.136719 236.324219 L 65.136719 235.878906 C 91.890625 235.878906 93.84375 231.546875 93.84375 207.183594 L 94.289062 207.183594 C 94.289062 231.546875 96.230469 235.878906 122.984375 235.878906 " fill-opacity="1" fill-rule="evenodd"/></g><g clip-path="url(#d96f466326)"><path fill="#000000" d="M 184.878906 294.523438 C 184.878906 294.523438 184.871094 294.523438 184.859375 294.523438 L 181.371094 294.472656 L 181.359375 294.472656 L 177.992188 294.394531 C 177.980469 294.394531 177.960938 294.394531 177.949219 294.394531 L 174.8125 294.273438 C 174.792969 294.273438 174.785156 294.273438 174.761719 294.273438 L 171.9375 294.101562 C 171.917969 294.101562 171.910156 294.101562 171.886719 294.101562 L 169.46875 293.890625 C 169.445312 293.890625 169.425781 293.890625 169.40625 293.878906 L 167.46875 293.636719 C 167.449219 293.636719 167.441406 293.636719 167.417969 293.625 L 165.988281 293.355469 L 162.980469 292.535156 L 147.566406 288.703125 C 147.558594 288.703125 147.558594 288.703125 147.546875 288.695312 C 147.535156 288.695312 147.527344 288.683594 147.515625 288.683594 L 145.921875 288.140625 C 145.902344 288.128906 145.882812 288.117188 145.863281 288.109375 L 130.953125 281.167969 L 129.097656 280.453125 L 127.835938 279.878906 C 127.796875 279.855469 127.753906 279.835938 127.714844 279.804688 L 111.363281 268.488281 C 111.324219 268.457031 111.292969 268.4375 111.253906 268.398438 L 97.078125 254.347656 C 97.050781 254.316406 97.019531 254.285156 97 254.246094 L 85.449219 237.800781 C 85.429688 237.773438 85.40625 237.730469 85.386719 237.703125 L 76.855469 219.441406 C 76.832031 219.402344 76.8125 219.363281 76.804688 219.3125 L 76.773438 219.179688 L 71.578125 199.8125 C 71.566406 199.78125 71.558594 199.742188 71.558594 199.710938 L 71.527344 199.511719 C 71.515625 199.46875 71.507812 199.441406 71.507812 199.398438 L 69.773438 179.679688 L 69.773438 179.667969 L 69.761719 179.597656 C 69.761719 179.546875 69.761719 179.496094 69.773438 179.445312 L 69.773438 179.324219 L 71.496094 159.542969 L 71.546875 159.199219 C 71.558594 159.160156 71.558594 159.121094 71.578125 159.078125 L 71.609375 158.96875 L 76.792969 139.609375 C 76.804688 139.570312 76.824219 139.519531 76.832031 139.480469 L 85.347656 121.222656 C 85.359375 121.191406 85.378906 121.160156 85.398438 121.128906 C 85.398438 121.121094 85.40625 121.121094 85.40625 121.109375 L 96.949219 104.667969 C 96.96875 104.636719 97 104.597656 97.027344 104.566406 L 111.203125 90.472656 C 111.230469 90.445312 111.273438 90.414062 111.3125 90.382812 L 127.65625 79.054688 C 127.683594 79.023438 127.726562 79.003906 127.765625 78.984375 L 129.007812 78.417969 L 130.871094 77.703125 L 145.792969 70.753906 C 145.8125 70.742188 145.832031 70.734375 145.851562 70.722656 L 147.445312 70.179688 C 147.476562 70.167969 147.507812 70.15625 147.535156 70.15625 L 147.546875 70.15625 L 165.875 65.519531 L 167.347656 65.234375 C 167.359375 65.234375 167.378906 65.234375 167.390625 65.226562 L 169.347656 64.984375 C 169.355469 64.984375 169.367188 64.984375 169.375 64.984375 L 171.828125 64.769531 C 171.835938 64.769531 171.835938 64.769531 171.847656 64.769531 L 174.703125 64.601562 C 174.710938 64.601562 174.710938 64.601562 174.722656 64.601562 L 177.890625 64.46875 L 177.898438 64.46875 L 181.289062 64.386719 L 181.308594 64.386719 L 184.789062 64.347656 L 184.800781 64.347656 L 188.3125 64.386719 C 188.320312 64.386719 188.320312 64.386719 188.332031 64.386719 L 191.710938 64.46875 L 191.71875 64.46875 L 194.898438 64.601562 C 194.90625 64.601562 194.90625 64.601562 194.917969 64.601562 L 197.761719 64.769531 C 197.773438 64.769531 197.773438 64.769531 197.78125 64.769531 L 200.214844 64.984375 C 200.234375 64.984375 200.253906 64.984375 200.273438 64.992188 L 202.210938 65.234375 C 202.222656 65.234375 202.230469 65.234375 202.25 65.246094 L 203.683594 65.519531 L 206.730469 66.34375 L 222.113281 70.167969 L 223.699219 70.710938 L 241.792969 78.964844 C 241.804688 78.964844 241.816406 78.972656 241.816406 78.972656 C 241.84375 78.984375 241.875 79.003906 241.894531 79.023438 L 258.265625 90.351562 C 258.296875 90.375 258.328125 90.402344 258.359375 90.425781 L 272.542969 104.507812 C 272.570312 104.535156 272.601562 104.566406 272.621094 104.605469 L 284.171875 121.039062 C 284.171875 121.050781 284.183594 121.050781 284.183594 121.058594 C 284.203125 121.089844 284.210938 121.121094 284.234375 121.148438 L 292.765625 139.398438 C 292.785156 139.4375 292.796875 139.480469 292.816406 139.53125 L 298.050781 159.039062 C 298.0625 159.058594 298.0625 159.089844 298.074219 159.109375 C 298.074219 159.121094 298.074219 159.128906 298.074219 159.140625 L 298.101562 159.402344 C 298.101562 159.421875 298.113281 159.453125 298.113281 159.472656 L 299.847656 179.386719 C 299.847656 179.425781 299.847656 179.457031 299.847656 179.488281 L 298.125 199.308594 C 298.125 199.328125 298.125 199.339844 298.113281 199.359375 C 298.113281 199.367188 298.113281 199.378906 298.113281 199.378906 L 298.082031 199.609375 C 298.082031 199.621094 298.082031 199.640625 298.074219 199.652344 C 298.074219 199.671875 298.0625 199.703125 298.0625 199.722656 L 292.835938 219.230469 C 292.828125 219.273438 292.808594 219.320312 292.785156 219.363281 L 284.261719 237.628906 C 284.242188 237.671875 284.222656 237.703125 284.203125 237.742188 L 272.664062 254.183594 C 272.640625 254.214844 272.613281 254.253906 272.582031 254.273438 L 258.410156 268.367188 C 258.378906 268.398438 258.339844 268.429688 258.296875 268.457031 L 241.945312 279.785156 C 241.914062 279.808594 241.875 279.828125 241.84375 279.847656 L 223.808594 288.089844 L 222.164062 288.652344 C 222.152344 288.652344 222.132812 288.664062 222.125 288.664062 L 217.191406 289.914062 L 206.71875 292.507812 L 203.746094 293.3125 L 202.273438 293.597656 C 202.261719 293.597656 202.25 293.597656 202.242188 293.597656 C 202.230469 293.597656 202.222656 293.597656 202.222656 293.597656 L 200.273438 293.839844 C 200.253906 293.839844 200.234375 293.839844 200.214844 293.847656 L 197.804688 294.058594 C 197.78125 294.058594 197.773438 294.058594 197.753906 294.058594 L 194.9375 294.230469 C 194.917969 294.230469 194.90625 294.230469 194.886719 294.230469 L 191.75 294.363281 C 191.742188 294.363281 191.71875 294.363281 191.710938 294.363281 L 188.339844 294.445312 L 188.332031 294.445312 L 184.839844 294.492188 C 184.902344 294.523438 184.890625 294.523438 184.878906 294.523438 Z M 181.664062 293.191406 L 184.253906 293.214844 L 184.253906 290.882812 L 179.402344 290.851562 Z M 185.527344 290.882812 L 185.527344 293.214844 L 188.117188 293.191406 L 190.378906 290.84375 Z M 178.164062 293.121094 L 179.847656 293.164062 L 177.609375 290.832031 L 173.753906 290.75 Z M 192.175781 290.820312 L 189.933594 293.152344 L 191.621094 293.113281 L 196.027344 290.730469 Z M 174.953125 292.992188 L 175.265625 293 L 170.960938 290.679688 L 168.671875 290.589844 Z M 198.832031 290.671875 L 194.515625 293 L 194.816406 292.992188 L 201.113281 290.589844 Z M 164.332031 290.417969 L 165.847656 290.894531 L 164.664062 290.4375 Z M 205.117188 290.417969 L 203.957031 290.863281 L 205.449219 290.398438 Z M 178.304688 289.5625 L 184.253906 289.601562 L 184.253906 283.640625 L 175.519531 283.578125 Z M 185.535156 283.640625 L 185.535156 289.601562 L 191.488281 289.550781 L 194.273438 283.578125 Z M 171.414062 289.410156 L 176.882812 289.53125 L 174.105469 283.570312 L 165.964844 283.398438 Z M 195.683594 283.558594 L 192.910156 289.519531 L 198.378906 289.398438 L 203.824219 283.386719 Z M 165.027344 289.167969 L 169.617188 289.347656 L 164.191406 283.367188 L 157.128906 283.117188 Z M 205.589844 283.347656 L 200.164062 289.339844 L 204.753906 289.15625 L 212.652344 283.085938 Z M 159.339844 288.84375 L 162.769531 289.046875 L 154.929688 283.023438 L 149.332031 282.722656 Z M 214.851562 283.003906 L 207.011719 289.027344 L 210.433594 288.824219 L 220.4375 282.691406 Z M 154.507812 288.441406 L 156.515625 288.613281 L 146.648438 282.570312 L 142.835938 282.269531 Z M 223.144531 282.539062 L 213.277344 288.59375 L 215.285156 288.421875 L 226.957031 282.238281 Z M 150.664062 287.976562 L 150.964844 288.019531 L 139.609375 282.003906 L 137.902344 281.8125 Z M 230.171875 281.976562 L 218.816406 287.988281 L 219.117188 287.949219 L 231.878906 281.773438 Z M 174.996094 282.308594 L 184.253906 282.367188 L 184.253906 272.875 L 172.230469 272.804688 Z M 185.535156 272.875 L 185.535156 282.367188 L 194.796875 282.296875 L 197.5625 272.796875 Z M 164.867188 282.105469 L 173.652344 282.289062 L 170.890625 272.796875 L 159.449219 272.582031 Z M 198.890625 272.785156 L 196.128906 282.277344 L 204.914062 282.085938 L 210.332031 272.5625 Z M 155.476562 281.773438 L 163.375 282.054688 L 157.96875 272.554688 L 147.636719 272.222656 Z M 211.824219 272.535156 L 206.417969 282.046875 L 214.304688 281.753906 L 222.144531 272.191406 Z M 147.113281 281.320312 L 153.742188 281.683594 L 145.921875 272.160156 L 137.15625 271.726562 Z M 223.847656 272.128906 L 216.03125 281.664062 L 222.660156 281.300781 L 232.605469 271.695312 Z M 140.050781 280.765625 L 145.125 281.167969 L 135.230469 271.625 L 128.402344 271.140625 Z M 234.5625 271.585938 L 224.664062 281.136719 L 229.730469 280.734375 L 241.390625 271.101562 Z M 134.472656 280.128906 L 137.722656 280.503906 L 126.179688 270.96875 L 121.582031 270.496094 Z M 243.589844 270.929688 L 232.050781 280.472656 L 235.296875 280.097656 L 248.179688 270.457031 Z M 130.550781 279.445312 L 131.6875 279.644531 L 119.089844 270.222656 L 117.03125 269.890625 Z M 250.679688 270.183594 L 238.082031 279.605469 L 239.210938 279.402344 L 252.71875 269.839844 Z M 171.910156 271.523438 L 184.253906 271.59375 L 184.253906 258.824219 L 169.386719 258.753906 Z M 185.535156 258.824219 L 185.535156 271.59375 L 197.894531 271.515625 L 200.414062 258.734375 Z M 158.785156 271.292969 L 170.597656 271.515625 L 168.074219 258.742188 L 153.851562 258.523438 Z M 201.707031 258.722656 L 199.183594 271.496094 L 210.996094 271.273438 L 215.929688 258.492188 Z M 146.628906 270.898438 L 157.402344 271.253906 L 152.46875 258.492188 L 139.488281 258.140625 Z M 217.3125 258.472656 L 212.390625 271.230469 L 223.164062 270.878906 L 230.292969 258.109375 Z M 135.835938 270.375 L 145.125 270.828125 L 138.003906 258.078125 L 126.796875 257.613281 Z M 231.777344 258.058594 L 224.65625 270.808594 L 233.9375 270.34375 L 242.976562 257.582031 Z M 126.757812 269.738281 L 134.191406 270.265625 L 125.171875 257.542969 L 116.164062 257 Z M 244.609375 257.503906 L 235.589844 270.234375 L 243.023438 269.699219 L 253.605469 256.949219 Z M 119.65625 269.011719 L 124.949219 269.558594 L 114.417969 256.886719 L 107.953125 256.3125 Z M 255.363281 256.835938 L 244.832031 269.515625 L 250.117188 268.960938 L 261.828125 256.253906 Z M 114.710938 268.226562 L 117.617188 268.699219 L 106.027344 256.140625 L 102.34375 255.625 Z M 263.734375 256.082031 L 252.15625 268.648438 L 255.050781 268.175781 L 267.40625 255.554688 Z M 112.058594 267.417969 L 112.171875 267.449219 L 100.238281 255.292969 L 99.703125 255.144531 Z M 269.515625 255.234375 L 257.589844 267.398438 L 257.691406 267.367188 L 270.039062 255.09375 Z M 169.164062 257.472656 L 184.253906 257.542969 L 184.253906 241.886719 L 167.046875 241.828125 Z M 185.535156 241.886719 L 185.535156 257.542969 L 200.628906 257.460938 L 202.746094 241.816406 Z M 153.40625 257.230469 L 167.875 257.453125 L 165.746094 241.808594 L 149.25 241.605469 Z M 204.035156 241.796875 L 201.917969 257.441406 L 216.382812 257.210938 L 220.53125 241.59375 Z M 138.832031 256.835938 L 152.085938 257.199219 L 147.941406 241.59375 L 132.839844 241.273438 Z M 221.851562 241.566406 L 217.707031 257.171875 L 230.949219 256.796875 L 236.941406 241.222656 Z M 125.917969 256.304688 L 137.429688 256.785156 L 131.449219 241.230469 L 118.332031 240.796875 Z M 238.335938 241.203125 L 232.351562 256.757812 L 243.863281 256.273438 L 251.449219 240.769531 Z M 115.117188 255.65625 L 124.457031 256.222656 L 116.882812 240.757812 L 106.238281 240.253906 Z M 252.878906 240.707031 L 245.316406 256.183594 L 254.65625 255.605469 L 263.511719 240.191406 Z M 106.710938 254.921875 L 113.5625 255.527344 L 104.726562 240.164062 L 96.917969 239.617188 Z M 265.035156 240.113281 L 256.199219 255.476562 L 263.039062 254.859375 L 272.832031 239.558594 Z M 100.941406 254.125 L 105.058594 254.699219 L 95.324219 239.488281 L 90.59375 238.960938 Z M 274.4375 239.4375 L 264.703125 254.648438 L 268.808594 254.074219 L 279.148438 238.910156 Z M 97.917969 253.328125 L 99.066406 253.648438 L 88.898438 238.761719 L 87.445312 238.4375 Z M 280.851562 238.679688 L 270.695312 253.578125 L 271.835938 253.265625 L 282.296875 238.355469 Z M 166.894531 240.546875 L 184.253906 240.605469 L 184.253906 222.628906 L 165.289062 222.582031 Z M 185.527344 222.628906 L 185.527344 240.605469 L 202.886719 240.527344 L 204.492188 222.570312 Z M 148.960938 240.335938 L 165.613281 240.535156 L 164.011719 222.582031 L 145.832031 222.429688 Z M 205.773438 222.570312 L 204.167969 240.527344 L 220.8125 240.3125 L 223.941406 222.410156 Z M 132.386719 239.980469 L 147.65625 240.304688 L 144.519531 222.417969 L 127.855469 222.175781 Z M 225.25 222.386719 L 222.125 240.285156 L 237.386719 239.941406 L 241.90625 222.125 Z M 117.757812 239.507812 L 131.054688 239.941406 L 126.523438 222.144531 L 112.027344 221.824219 Z M 243.226562 222.105469 L 238.707031 239.902344 L 252.003906 239.457031 L 257.710938 221.773438 Z M 105.5625 238.933594 L 116.40625 239.445312 L 110.699219 221.785156 L 98.894531 221.398438 Z M 259.074219 221.742188 L 253.363281 239.40625 L 264.199219 238.882812 L 270.867188 221.347656 Z M 96.132812 238.285156 L 104.160156 238.851562 L 97.503906 221.359375 L 88.777344 220.9375 Z M 272.257812 221.289062 L 265.609375 238.789062 L 273.628906 238.226562 L 280.984375 220.867188 Z M 89.714844 237.589844 L 94.6875 238.144531 L 87.34375 220.855469 L 81.9375 220.441406 Z M 282.398438 220.785156 L 275.074219 238.074219 L 280.035156 237.519531 L 287.804688 220.359375 Z M 86.417969 236.882812 L 88.171875 237.277344 L 80.464844 220.289062 L 78.507812 219.976562 Z M 289.265625 220.21875 L 281.578125 237.207031 L 283.324219 236.8125 L 291.214844 219.90625 Z M 165.191406 221.308594 L 184.246094 221.359375 L 184.246094 201.75 L 164.191406 201.730469 Z M 185.527344 201.75 L 185.527344 221.359375 L 204.582031 221.300781 L 205.570312 201.71875 Z M 145.640625 221.148438 L 163.917969 221.300781 L 162.910156 201.71875 L 143.683594 201.636719 Z M 206.851562 201.710938 L 205.863281 221.289062 L 224.140625 221.128906 L 226.089844 201.617188 Z M 127.59375 220.894531 L 144.359375 221.136719 L 142.402344 201.636719 L 124.769531 201.507812 Z M 227.359375 201.609375 L 225.414062 221.109375 L 242.167969 220.855469 L 244.972656 201.476562 Z M 111.6875 220.542969 L 126.292969 220.867188 L 123.476562 201.496094 L 108.136719 201.324219 Z M 246.273438 201.457031 L 243.46875 220.824219 L 258.066406 220.492188 L 261.605469 201.285156 Z M 98.460938 220.117188 L 110.382812 220.511719 L 106.832031 201.324219 L 94.324219 201.125 Z M 262.917969 201.265625 L 259.378906 220.453125 L 271.289062 220.058594 L 275.425781 201.054688 Z M 88.292969 219.632812 L 97.148438 220.058594 L 93.015625 201.082031 L 83.734375 200.863281 Z M 276.738281 201.023438 L 272.613281 219.996094 L 281.457031 219.5625 L 286.007812 200.792969 Z M 81.414062 219.121094 L 86.953125 219.542969 L 82.402344 200.820312 L 76.601562 200.597656 Z M 287.328125 200.75 L 282.789062 219.472656 L 288.316406 219.039062 L 293.121094 200.519531 Z M 77.933594 218.59375 L 80.042969 218.929688 L 75.25 200.519531 L 73.03125 200.335938 Z M 294.472656 200.429688 L 289.691406 218.859375 L 291.789062 218.523438 L 296.699219 200.15625 Z M 164.140625 200.449219 L 184.234375 200.46875 L 184.226562 180.019531 L 163.789062 180.03125 Z M 185.515625 180.019531 L 185.527344 200.46875 L 205.621094 200.4375 L 205.953125 180.019531 Z M 143.59375 200.367188 L 162.871094 200.449219 L 162.527344 180.03125 L 142.925781 180.042969 Z M 207.226562 180.019531 L 206.890625 200.4375 L 226.160156 200.347656 L 226.816406 180.019531 Z M 124.636719 200.238281 L 142.3125 200.367188 L 141.644531 180.042969 L 123.679688 180.050781 Z M 228.097656 180.011719 L 227.441406 200.335938 L 245.113281 200.195312 L 246.0625 180.011719 Z M 107.964844 200.054688 L 123.355469 200.226562 L 122.398438 180.050781 L 106.753906 180.0625 Z M 247.34375 180.011719 L 246.394531 200.1875 L 261.777344 200.003906 L 262.976562 180.011719 Z M 94.125 199.832031 L 106.691406 200.035156 L 105.480469 180.0625 L 92.722656 180.070312 Z M 264.257812 180.011719 L 263.058594 199.984375 L 275.617188 199.773438 L 277.011719 180.011719 Z M 83.5 199.582031 L 92.84375 199.800781 L 91.441406 180.070312 L 81.957031 180.082031 Z M 278.300781 180.011719 L 276.910156 199.742188 L 286.238281 199.511719 L 287.773438 180.011719 Z M 76.347656 199.308594 L 82.210938 199.539062 L 80.667969 180.082031 L 74.714844 180.089844 Z M 289.054688 180.011719 L 287.519531 199.460938 L 293.371094 199.226562 L 294.996094 180.011719 Z M 72.757812 199.035156 L 75.058594 199.226562 L 73.433594 180.089844 L 71.09375 180.101562 Z M 296.277344 180.011719 L 294.664062 199.117188 L 296.964844 198.835938 L 298.597656 180.019531 Z M 72.757812 159.875 L 71.09375 178.820312 L 73.433594 178.8125 L 75.046875 159.675781 Z M 76.339844 159.59375 L 74.714844 178.808594 L 80.667969 178.800781 L 82.199219 159.351562 Z M 83.480469 159.3125 L 81.949219 178.8125 L 91.429688 178.800781 L 92.820312 159.070312 Z M 94.101562 159.039062 L 92.710938 178.789062 L 105.472656 178.78125 L 106.664062 158.808594 Z M 107.953125 158.796875 L 106.753906 178.789062 L 122.398438 178.78125 L 123.347656 158.605469 Z M 124.628906 158.585938 L 123.679688 178.769531 L 141.644531 178.761719 L 142.300781 158.445312 Z M 143.582031 158.433594 L 142.925781 178.761719 L 162.527344 178.75 L 162.859375 158.332031 Z M 164.128906 158.332031 L 163.796875 178.75 L 184.234375 178.738281 L 184.226562 158.292969 Z M 185.507812 158.300781 L 185.515625 178.75 L 205.953125 178.738281 L 205.609375 158.324219 Z M 296.277344 178.738281 L 298.597656 178.75 L 296.941406 159.925781 L 294.652344 159.632812 Z M 206.882812 158.324219 L 207.226562 178.738281 L 226.816406 178.738281 L 226.140625 158.414062 Z M 289.054688 178.730469 L 294.996094 178.730469 L 293.363281 159.511719 L 287.511719 159.269531 Z M 227.429688 158.414062 L 228.097656 178.730469 L 246.0625 178.730469 L 245.09375 158.542969 Z M 278.300781 178.730469 L 287.773438 178.730469 L 286.21875 159.230469 L 276.890625 159 Z M 246.375 158.554688 L 247.34375 178.730469 L 262.976562 178.730469 L 261.769531 158.738281 Z M 264.257812 178.730469 L 277.019531 178.730469 L 275.609375 158.96875 L 263.050781 158.757812 Z M 294.453125 158.324219 L 296.691406 158.605469 L 291.757812 140.234375 L 289.660156 139.894531 Z M 77.914062 140.316406 L 73.03125 158.574219 L 75.25 158.382812 L 80.019531 139.972656 Z M 81.382812 139.78125 L 76.582031 158.300781 L 82.382812 158.0625 L 86.921875 139.347656 Z M 287.320312 157.988281 L 293.109375 158.222656 L 288.289062 139.703125 L 282.761719 139.265625 Z M 88.261719 139.246094 L 83.714844 158.019531 L 92.992188 157.777344 L 97.109375 138.8125 Z M 276.71875 157.71875 L 285.988281 157.949219 L 281.417969 139.175781 L 272.570312 138.742188 Z M 98.429688 138.753906 L 94.304688 157.757812 L 106.8125 157.535156 L 110.355469 138.339844 Z M 262.90625 157.476562 L 275.40625 157.6875 L 271.261719 138.683594 L 259.347656 138.289062 Z M 111.664062 138.308594 L 108.125 157.515625 L 123.46875 157.324219 L 126.261719 137.957031 Z M 246.261719 157.285156 L 261.597656 157.464844 L 258.035156 138.257812 L 243.4375 137.925781 Z M 127.5625 137.9375 L 124.757812 157.3125 L 142.382812 157.171875 L 144.320312 137.671875 Z M 227.347656 157.132812 L 244.972656 157.261719 L 242.148438 137.886719 L 225.390625 137.632812 Z M 145.609375 137.652344 L 143.671875 157.152344 L 162.898438 157.0625 L 163.890625 137.492188 Z M 206.839844 157.050781 L 226.066406 157.132812 L 224.109375 137.632812 L 205.84375 137.480469 Z M 165.160156 137.480469 L 164.171875 157.0625 L 184.226562 157.023438 L 184.214844 137.421875 Z M 185.507812 157.023438 L 205.558594 157.042969 L 204.550781 137.460938 L 185.496094 137.410156 Z M 86.375 122.027344 L 78.488281 138.925781 L 80.445312 138.613281 L 88.132812 121.625 Z M 289.234375 138.542969 L 291.183594 138.855469 L 283.285156 121.957031 L 281.539062 121.554688 Z M 89.675781 121.3125 L 81.917969 138.46875 L 87.324219 138.035156 L 94.648438 120.746094 Z M 282.367188 137.964844 L 287.761719 138.390625 L 279.984375 121.242188 L 275.023438 120.675781 Z M 96.089844 120.59375 L 88.738281 137.945312 L 97.460938 137.511719 L 104.109375 120.019531 Z M 272.230469 137.453125 L 280.945312 137.886719 L 273.582031 120.535156 L 265.5625 119.960938 Z M 105.511719 119.929688 L 98.855469 137.460938 L 110.65625 137.058594 L 116.355469 119.394531 Z M 259.042969 136.996094 L 270.835938 137.390625 L 264.160156 119.871094 L 253.324219 119.34375 Z M 117.71875 119.335938 L 112.007812 137.019531 L 126.503906 136.675781 L 131.011719 118.878906 Z M 243.195312 136.632812 L 257.683594 136.96875 L 251.960938 119.285156 L 238.667969 118.839844 Z M 132.34375 118.839844 L 127.824219 136.644531 L 144.492188 136.382812 L 147.617188 118.496094 Z M 225.222656 136.363281 L 241.875 136.613281 L 237.347656 118.808594 L 222.082031 118.476562 Z M 148.917969 118.476562 L 145.792969 136.371094 L 163.96875 136.210938 L 165.5625 118.265625 Z M 205.742188 136.191406 L 223.917969 136.34375 L 220.78125 118.457031 L 204.136719 118.253906 Z M 166.855469 118.246094 L 165.261719 136.199219 L 184.226562 136.140625 L 184.214844 118.175781 Z M 185.496094 136.140625 L 204.460938 136.191406 L 202.847656 118.234375 L 185.484375 118.175781 Z M 97.867188 105.574219 L 87.40625 120.484375 L 88.859375 120.152344 L 99.007812 105.253906 Z M 280.8125 120.082031 L 282.253906 120.414062 L 271.785156 105.523438 L 270.644531 105.203125 Z M 100.890625 104.757812 L 90.550781 119.917969 L 95.285156 119.386719 L 105.007812 104.171875 Z M 274.386719 119.324219 L 279.109375 119.859375 L 268.757812 104.707031 L 264.652344 104.121094 Z M 106.664062 103.949219 L 96.878906 119.253906 L 104.683594 118.6875 L 113.511719 103.335938 Z M 264.996094 118.636719 L 272.792969 119.195312 L 262.988281 103.902344 L 256.148438 103.285156 Z M 115.066406 103.203125 L 106.207031 118.617188 L 116.851562 118.09375 L 124.417969 102.628906 Z M 252.839844 118.042969 L 263.472656 118.558594 L 254.605469 103.152344 L 245.265625 102.578125 Z M 125.867188 102.539062 L 118.292969 118.035156 L 131.40625 117.589844 L 137.390625 102.042969 Z M 238.285156 117.558594 L 251.386719 117.992188 L 243.792969 102.5 L 232.28125 102.015625 Z M 138.769531 101.996094 L 132.789062 117.558594 L 147.890625 117.214844 L 152.027344 101.609375 Z M 221.8125 117.195312 L 236.902344 117.527344 L 230.898438 101.972656 L 217.65625 101.609375 Z M 153.355469 101.582031 L 149.222656 117.195312 L 165.714844 116.984375 L 167.824219 101.347656 Z M 203.988281 116.964844 L 220.480469 117.164062 L 216.324219 101.558594 L 201.859375 101.328125 Z M 169.113281 101.328125 L 167.003906 116.964844 L 184.214844 116.882812 L 184.203125 101.238281 Z M 185.484375 116.894531 L 202.695312 116.953125 L 200.566406 101.316406 L 185.476562 101.246094 Z M 112 91.472656 L 99.660156 103.75 L 100.1875 103.597656 L 112.097656 91.441406 Z M 269.464844 103.539062 L 269.980469 103.679688 L 257.632812 91.421875 L 257.542969 91.390625 Z M 114.652344 90.664062 L 102.292969 103.273438 L 105.976562 102.75 L 117.558594 90.191406 Z M 263.675781 102.691406 L 267.347656 103.214844 L 254.980469 90.617188 L 252.082031 90.140625 Z M 119.59375 89.859375 L 107.894531 102.558594 L 114.359375 101.972656 L 124.878906 89.304688 Z M 255.300781 101.921875 L 261.769531 102.507812 L 250.054688 89.820312 L 244.769531 89.265625 Z M 126.695312 89.121094 L 116.113281 101.863281 L 125.113281 101.308594 L 134.128906 88.578125 Z M 244.546875 101.257812 L 253.546875 101.8125 L 242.953125 89.082031 L 235.53125 88.546875 Z M 135.773438 88.46875 L 126.738281 101.226562 L 137.945312 100.742188 L 145.066406 88.003906 Z M 231.726562 100.714844 L 242.933594 101.1875 L 233.886719 88.4375 L 224.605469 87.972656 Z M 146.570312 87.933594 L 139.4375 100.691406 L 152.417969 100.320312 L 157.332031 87.570312 Z M 217.261719 100.308594 L 230.234375 100.671875 L 223.09375 87.902344 L 212.320312 87.550781 Z M 158.722656 87.527344 L 153.800781 100.300781 L 168.023438 100.066406 L 170.535156 87.308594 Z M 201.65625 100.058594 L 215.878906 100.28125 L 210.9375 87.519531 L 199.125 87.296875 Z M 171.835938 87.285156 L 169.324219 100.058594 L 184.195312 99.976562 L 184.183594 87.214844 Z M 185.476562 99.964844 L 200.34375 100.039062 L 197.8125 87.277344 L 185.464844 87.207031 Z M 130.480469 79.429688 L 116.980469 88.980469 L 119.03125 88.648438 L 131.609375 79.226562 Z M 250.609375 88.597656 L 252.648438 88.929688 L 239.140625 79.398438 L 238.023438 79.195312 Z M 134.402344 78.730469 L 121.519531 88.367188 L 126.109375 87.882812 L 137.640625 78.347656 Z M 243.53125 87.851562 L 248.109375 88.335938 L 235.21875 78.710938 L 231.980469 78.339844 Z M 139.980469 78.097656 L 128.332031 87.71875 L 135.160156 87.226562 L 145.046875 77.683594 Z M 234.5 87.1875 L 241.320312 87.679688 L 229.660156 78.066406 L 224.59375 77.664062 Z M 147.042969 77.53125 L 137.097656 87.125 L 145.863281 86.679688 L 153.671875 77.160156 Z M 223.789062 86.652344 L 232.542969 87.085938 L 222.589844 77.5 L 215.960938 77.136719 Z M 155.40625 77.066406 L 147.566406 86.621094 L 157.898438 86.277344 L 163.292969 76.777344 Z M 211.753906 86.257812 L 222.082031 86.601562 L 214.234375 77.058594 L 206.347656 76.777344 Z M 164.796875 76.726562 L 159.390625 86.238281 L 170.839844 86.015625 L 173.59375 76.535156 Z M 198.832031 86.003906 L 210.269531 86.21875 L 204.855469 76.703125 L 196.066406 76.523438 Z M 174.925781 76.511719 L 172.171875 86.003906 L 184.195312 85.925781 L 184.183594 76.441406 Z M 185.464844 85.925781 L 197.488281 85.996094 L 194.714844 76.503906 L 185.457031 76.441406 Z M 150.582031 70.882812 L 137.84375 77.046875 L 139.527344 76.855469 L 150.875 70.84375 Z M 230.101562 76.824219 L 231.789062 77.015625 L 219.039062 70.863281 L 218.746094 70.824219 Z M 154.425781 70.421875 L 142.765625 76.59375 L 146.570312 76.292969 L 156.425781 70.25 Z M 223.070312 76.25 L 226.875 76.554688 L 215.203125 70.390625 L 213.207031 70.21875 Z M 159.269531 70.007812 L 149.273438 76.128906 L 154.859375 75.816406 L 162.6875 69.804688 Z M 214.78125 75.796875 L 220.367188 76.109375 L 210.363281 69.996094 L 206.941406 69.792969 Z M 164.957031 69.671875 L 157.070312 75.726562 L 164.121094 75.464844 L 169.539062 69.492188 Z M 205.519531 75.453125 L 212.570312 75.707031 L 204.671875 69.652344 L 200.082031 69.472656 Z M 171.332031 69.421875 L 165.894531 75.421875 L 174.035156 75.253906 L 176.8125 69.300781 Z M 195.613281 75.242188 L 203.753906 75.414062 L 198.296875 69.410156 L 192.828125 69.289062 Z M 178.222656 69.269531 L 175.449219 75.230469 L 184.183594 75.171875 L 184.175781 69.230469 Z M 185.464844 75.171875 L 194.203125 75.230469 L 191.417969 69.269531 L 185.464844 69.230469 Z M 165.675781 67.988281 L 164.28125 68.421875 L 164.585938 68.402344 Z M 205.035156 68.394531 L 205.339844 68.414062 L 203.964844 67.988281 Z M 174.875 65.859375 L 168.597656 68.25 L 170.929688 68.128906 L 175.167969 65.851562 Z M 198.761719 68.152344 L 201.03125 68.242188 L 194.757812 65.851562 L 194.464844 65.839844 Z M 178.082031 65.730469 L 173.695312 68.089844 L 177.539062 68 L 179.765625 65.679688 Z M 192.09375 68 L 195.9375 68.078125 L 191.539062 65.71875 L 189.855469 65.679688 Z M 181.582031 65.648438 L 179.332031 67.988281 L 184.175781 67.949219 L 184.175781 65.628906 Z M 185.457031 67.949219 L 190.296875 67.980469 L 188.039062 65.648438 L 185.445312 65.628906 Z M 185.457031 67.949219 " fill-opacity="1" fill-rule="nonzero"/></g><g clip-path="url(#e493a69231)"><path fill="#000000" d="M 291.347656 104.699219 L 291.347656 104.535156 C 310.542969 104.535156 311.9375 102.933594 311.9375 93.953125 L 312.257812 93.953125 C 312.257812 102.933594 313.65625 104.535156 332.851562 104.535156 L 332.851562 104.699219 C 313.65625 104.699219 312.257812 106.296875 312.257812 115.277344 L 311.9375 115.277344 C 311.9375 106.296875 310.542969 104.699219 291.347656 104.699219 " fill-opacity="1" fill-rule="evenodd"/></g><g clip-path="url(#eb0c40b1f5)"><path fill="#000000" d="M 38.851562 252.898438 L 38.851562 252.710938 C 60.710938 252.710938 62.296875 250.890625 62.296875 240.664062 L 62.660156 240.664062 C 62.660156 250.890625 64.253906 252.710938 86.113281 252.710938 L 86.113281 252.898438 C 64.253906 252.898438 62.660156 254.71875 62.660156 264.945312 L 62.296875 264.945312 C 62.296875 254.71875 60.710938 252.898438 38.851562 252.898438 " fill-opacity="1" fill-rule="evenodd"/></g><path stroke-linecap="butt" transform="matrix(1.09117, -0.366099, 0.366099, 1.09117, 0.150549, 180.695028)" fill="none" stroke-linejoin="miter" d="M 3.946029 41.998715 L 25.12039 42.00047 C 30.561823 42.000394 34.506356 38.011295 34.506279 32.569862 L 34.506367 29.78475 C 34.506311 24.332585 30.561201 20.395651 25.118689 20.398945 L 15.009647 20.397393 C 13.932093 20.39743 13.070872 19.539281 13.070836 18.461727 C 13.070863 17.351975 13.93115 16.495051 15.008704 16.495015 L 32.539347 16.495001 C 33.649099 16.495028 34.507248 15.633807 34.506216 14.51654 L 34.5071 9.680428 C 34.507148 8.559944 33.649145 7.702875 32.539393 7.702848 L 11.357517 7.702151 C 5.912867 7.701148 1.968418 11.647317 1.968494 17.088749 L 1.968406 19.873861 C 1.968462 25.326027 5.913572 29.262961 11.355005 29.262884 L 21.436146 29.262235 C 22.545897 29.262261 23.403796 30.172993 23.403853 31.239815 C 23.402831 32.309854 22.542544 33.166778 21.43601 33.167831 L 3.945079 33.166849 C 2.824595 33.166801 1.967526 34.024805 1.967478 35.145289 L 1.967568 40.031846 C 1.967541 41.141598 2.825545 41.998667 3.946029 41.998715 Z M 3.946029 41.998715 " stroke="#ffffff" stroke-width="6.430695" stroke-opacity="1" stroke-miterlimit="4"/><path stroke-linecap="butt" transform="matrix(1.116097, -0.281082, 0.281082, 1.116097, 42.193555, 166.830735)" fill="none" stroke-linejoin="miter" d="M 3.945342 41.999819 L 11.10595 42.000716 C 12.215562 42.000171 13.072307 41.141462 13.071762 40.031851 L 13.073478 31.450482 C 13.072933 30.340871 13.929678 29.482162 15.008012 29.48074 C 16.116794 29.483486 16.97543 30.382212 16.975975 31.491824 L 16.977624 40.032041 C 16.974877 41.140823 17.832758 42.00086 18.942369 42.000316 L 26.102977 42.001212 C 27.223291 41.999863 28.080036 41.141154 28.082783 40.032372 L 28.079458 9.680239 C 28.0814 8.560754 27.22352 7.700717 26.103206 7.702066 L 18.942598 7.70117 C 17.832987 7.701714 16.976241 8.560423 16.97759 9.680737 L 16.975144 18.209423 C 16.975688 19.319034 16.118943 20.177743 15.009331 20.178288 C 13.931827 20.176419 13.073118 19.319673 13.072573 18.210062 L 13.071729 9.680547 C 13.073671 8.561062 12.215791 7.701025 11.106179 7.70157 L 3.945571 7.700673 C 2.825258 7.702022 1.968512 8.560731 1.96657 9.680216 L 1.966604 40.03152 C 1.967148 41.141131 2.825028 42.001168 3.945342 41.999819 Z M 3.945342 41.999819 " stroke="#ffffff" stroke-width="6.430695" stroke-opacity="1" stroke-miterlimit="4"/><path stroke-linecap="butt" transform="matrix(1.132933, -0.202836, 0.202836, 1.132933, 77.75201, 157.949754)" fill="none" stroke-linejoin="miter" d="M 3.946154 42.001628 L 11.104203 42.000556 C 12.214639 41.999386 13.071418 41.142543 13.073589 40.032705 L 13.072026 34.495085 C 13.074197 33.385247 13.930976 32.528405 15.010148 32.528533 C 16.117243 32.526764 16.976333 33.428769 16.975256 34.493979 L 16.976819 40.0316 C 16.977989 41.142036 17.834832 41.998815 18.94467 42.000985 L 26.102719 41.999914 C 27.223177 42.000538 28.080554 41.140354 28.082127 40.033857 L 28.08222 17.308712 C 28.081153 11.729805 24.051106 7.701737 18.4722 7.702804 L 11.576427 7.702561 C 5.997521 7.703628 1.96671 11.729736 1.967776 17.308643 L 1.967683 40.033788 C 1.969451 41.140884 2.825696 42.001004 3.946154 42.001628 Z M 15.007178 24.552989 C 13.931346 24.55346 13.071761 23.692741 13.072837 22.627531 L 13.072826 18.679674 C 13.072852 17.562556 13.930229 16.702373 15.009401 16.702501 C 16.119239 16.704671 16.976082 17.56145 16.975458 18.681909 L 16.976067 22.626425 C 16.977734 23.695575 16.117614 24.551819 15.007178 24.552989 Z M 15.007178 24.552989 " stroke="#ffffff" stroke-width="6.430695" stroke-opacity="1" stroke-miterlimit="4"/><path stroke-linecap="butt" transform="matrix(1.145179, -0.115091, 0.115091, 1.145179, 114.04606, 151.397481)" fill="none" stroke-linejoin="miter" d="M 3.945896 41.998433 L 11.105345 42.001639 C 12.214047 42.0005 13.071938 41.100927 13.072156 39.978717 L 13.07283 31.113494 C 13.072013 30.035523 13.928869 29.180191 15.010216 29.179713 L 21.433461 29.177152 C 22.5452 29.179728 23.40391 30.036924 23.40135 31.114555 L 23.40234 40.031111 C 23.40314 41.14319 24.26185 42.000385 25.380683 42.000264 L 32.540471 42.000093 C 33.649174 41.998954 34.507064 41.099381 34.506943 39.980548 L 34.507683 30.300093 C 34.507016 28.236347 33.053558 26.780436 30.989812 26.781103 L 30.614616 26.780917 C 29.536646 26.781734 28.677936 25.924539 28.676101 24.856699 C 28.676318 23.734489 29.536551 22.879496 30.614522 22.878678 L 30.863753 22.876438 C 32.968361 22.876467 34.507729 21.339298 34.507757 19.234689 L 34.506204 15.550611 C 34.508789 11.010777 31.212014 7.701614 26.668465 7.702066 L 3.944301 7.700273 C 2.825468 7.700394 1.968273 8.559104 1.968055 9.681314 L 1.967213 40.032657 C 1.968353 41.141359 2.827063 41.998554 3.945896 41.998433 Z M 15.007768 20.481317 C 13.929798 20.482134 13.071427 19.621562 13.073987 18.543931 C 13.072152 17.476091 13.929347 16.617381 15.006978 16.619941 L 21.433599 16.617719 C 22.545339 16.620296 23.404049 17.477491 23.402507 18.544991 C 23.403325 19.622962 22.542752 20.481332 21.43405 20.482472 Z M 15.007768 20.481317 " stroke="#ffffff" stroke-width="6.430695" stroke-opacity="1" stroke-miterlimit="4"/><path stroke-linecap="butt" transform="matrix(1.150806, -0.0180426, 0.0180426, 1.150806, 158.335293, 147.052022)" fill="none" stroke-linejoin="miter" d="M 3.944804 42.001479 L 32.583056 41.999026 C 33.689611 41.999403 34.548272 41.140514 34.54865 40.033959 L 34.550671 34.925479 C 34.547708 33.815477 33.692213 32.956869 32.582264 32.956439 L 15.009673 32.955875 C 13.930265 32.955923 13.071377 32.097262 13.071275 31.021248 C 13.071067 29.952022 13.930367 29.052411 15.009774 29.052363 L 30.864816 29.053153 C 31.984946 29.053743 32.843607 28.194855 32.844037 27.084906 L 32.843323 22.583974 C 32.843912 21.463844 31.985024 20.605183 30.864842 20.607987 L 15.009799 20.607196 C 13.930392 20.607245 13.071504 19.748583 13.071296 18.679357 C 13.071832 17.562621 13.930494 16.703732 15.009901 16.703684 L 32.582493 16.704248 C 33.692495 16.701284 34.54771 15.845737 34.54814 14.735788 L 34.54931 9.681604 C 34.5499 8.561475 33.691012 7.702813 32.581063 7.702383 L 3.946258 7.701496 C 2.826128 7.700906 1.967467 8.559794 1.966877 9.679924 L 1.966216 40.032278 C 1.96918 41.14228 2.824674 42.000889 3.944804 42.001479 Z M 3.944804 42.001479 " stroke="#ffffff" stroke-width="6.430695" stroke-opacity="1" stroke-miterlimit="4"/><path stroke-linecap="butt" transform="matrix(1.146004, 0.106565, -0.106565, 1.146004, 219.161489, 147.319531)" fill="none" stroke-linejoin="miter" d="M 3.945187 41.999119 L 18.472788 42.001423 C 24.05257 42.000671 28.081133 37.927745 28.080695 32.351342 L 28.079481 17.309372 C 28.082422 11.732655 24.050363 7.7037 18.473646 7.700759 L 3.946359 7.701834 C 2.824807 7.700459 1.967444 8.56075 1.969135 9.678609 L 1.965975 40.032346 C 1.967037 41.143446 2.827328 42.000809 3.945187 41.999119 Z M 15.009725 33.167991 C 13.929039 33.166225 13.072128 32.308548 13.071771 31.241694 L 13.073073 18.46279 C 13.07201 17.351691 13.929688 16.494779 15.010059 16.493166 C 16.117779 16.492418 16.975005 17.353474 16.975753 18.461195 L 16.977831 31.239784 C 16.974808 32.306952 16.117445 33.167243 15.009725 33.167991 Z M 15.009725 33.167991 " stroke="#ffffff" stroke-width="6.430695" stroke-opacity="1" stroke-miterlimit="4"/><path stroke-linecap="butt" transform="matrix(1.135827, 0.185953, -0.185953, 1.135827, 255.648036, 150.784648)" fill="none" stroke-linejoin="miter" d="M 11.574118 41.999138 L 18.473325 42.001101 C 24.051286 41.99927 28.082547 37.927676 28.080716 32.349715 L 28.080954 17.310381 C 28.082471 11.731872 24.052167 7.700729 18.474206 7.702561 L 11.574999 7.700597 C 5.997038 7.702429 1.969245 11.732185 1.967727 17.310694 L 1.967489 32.350028 C 1.965971 37.928538 5.996157 42.000969 11.574118 41.999138 Z M 15.008088 33.165847 C 13.931775 33.16666 13.072193 32.306602 13.073024 31.240337 L 13.071793 18.460749 C 13.072742 17.353196 13.929451 16.494162 15.009114 16.492799 C 16.116667 16.493749 16.975701 17.350458 16.9753 18.461361 L 16.976531 31.240949 C 16.9757 32.307214 16.118991 33.166248 15.008088 33.165847 Z M 15.008088 33.165847 " stroke="#ffffff" stroke-width="6.430695" stroke-opacity="1" stroke-miterlimit="4"/><path stroke-linecap="butt" transform="matrix(1.118158, 0.272769, -0.272769, 1.118158, 292.053149, 156.688847)" fill="none" stroke-linejoin="miter" d="M 11.574565 41.999933 L 32.538939 42.000218 C 33.6494 41.998324 34.506497 41.101026 34.508784 39.979064 L 34.506706 34.285218 C 34.5065 33.167358 33.650378 32.307203 32.539917 32.309098 L 15.009786 32.309479 C 13.929804 32.307431 13.071189 31.451378 13.072353 30.382093 L 13.073759 19.317935 C 13.072669 18.210772 13.932019 17.351352 15.007899 17.350907 L 32.538031 17.350526 C 33.649296 17.351929 34.508646 16.492509 34.508441 15.37465 L 34.506363 9.680803 C 34.50865 8.558842 33.650035 7.702789 32.53877 7.701386 L 11.574396 7.7011 C 5.995793 7.703013 1.968925 11.731652 1.967541 17.311058 L 1.968144 32.350293 C 1.966759 37.9297 5.995962 42.001845 11.574565 41.999933 Z M 11.574565 41.999933 " stroke="#ffffff" stroke-width="6.430695" stroke-opacity="1" stroke-miterlimit="4"/><path stroke-linecap="butt" transform="matrix(1.09117, 0.366099, -0.366099, 1.09117, 335.260499, 167.338129)" fill="none" stroke-linejoin="miter" d="M 3.947467 42.00078 L 25.11861 42.000103 C 30.560043 42.00018 34.506127 38.012801 34.506204 32.571368 L 34.506116 29.786256 C 34.506172 24.334091 30.561744 20.398654 25.120311 20.398578 L 15.01019 20.396912 C 13.929418 20.397955 13.072349 19.539951 13.072385 18.462397 C 13.072359 17.352646 13.929283 16.492359 15.007916 16.495613 L 32.541777 16.494547 C 33.648311 16.4956 34.508453 15.634233 34.508405 14.513749 L 34.5086 9.680855 C 34.508553 8.56037 33.648266 7.703446 32.538514 7.703473 L 11.355559 7.700953 C 5.914126 7.700876 1.969037 11.648543 1.96896 17.089976 L 1.969048 19.875087 C 1.968993 25.327253 5.91342 29.262689 11.354853 29.262765 L 21.435994 29.263415 C 22.545746 29.263389 23.401841 30.171837 23.402863 31.241876 C 23.402806 32.308698 22.544802 33.165767 21.43505 33.165794 L 3.947337 33.165696 C 2.826853 33.165744 1.965631 34.023893 1.968897 35.143297 L 1.966669 40.034152 C 1.965616 41.140686 2.826983 42.000827 3.947467 42.00078 Z M 3.947467 42.00078 " stroke="#ffffff" stroke-width="6.430695" stroke-opacity="1" stroke-miterlimit="4"/><g fill="#000000" fill-opacity="1"><g transform="translate(15.526714, 226.524165)"><g><path d="M 4.304688 -1.445312 L 27.414062 -9.195312 C 33.351562 -11.191406 36.195312 -16.984375 34.203125 -22.925781 L 33.183594 -25.964844 C 31.191406 -31.90625 25.441406 -34.765625 19.503906 -32.773438 L 8.460938 -29.070312 C 7.292969 -28.675781 6.042969 -29.296875 5.652344 -30.46875 C 5.242188 -31.683594 5.863281 -32.933594 7.035156 -33.328125 L 26.167969 -39.746094 C 27.382812 -40.152344 28.003906 -41.402344 27.597656 -42.621094 L 25.824219 -47.90625 C 25.414062 -49.121094 24.164062 -49.742188 22.949219 -49.335938 L -0.160156 -41.582031 C -6.101562 -39.589844 -8.960938 -33.839844 -6.964844 -27.898438 L -5.945312 -24.859375 C -3.953125 -18.917969 1.792969 -16.058594 7.734375 -18.050781 L 18.726562 -21.742188 C 19.945312 -22.148438 21.210938 -21.480469 21.601562 -20.3125 C 21.992188 -19.140625 21.371094 -17.890625 20.15625 -17.484375 L 1.070312 -11.082031 C -0.144531 -10.671875 -0.765625 -9.421875 -0.359375 -8.207031 L 1.429688 -2.875 C 1.839844 -1.65625 3.085938 -1.035156 4.304688 -1.445312 Z M 4.304688 -1.445312 "/></g></g></g><g fill="#000000" fill-opacity="1"><g transform="translate(53.999009, 213.706824)"><g><path d="M 4.402344 -1.109375 L 12.390625 -3.121094 C 13.636719 -3.433594 14.351562 -4.632812 14.039062 -5.875 L 11.628906 -15.445312 C 11.316406 -16.691406 12.03125 -17.886719 13.226562 -18.1875 C 14.472656 -18.503906 15.683594 -17.738281 15.996094 -16.496094 L 18.394531 -6.972656 C 18.707031 -5.730469 19.90625 -5.011719 21.148438 -5.324219 L 29.140625 -7.339844 C 30.382812 -7.652344 31.097656 -8.851562 30.785156 -10.09375 L 22.253906 -43.96875 C 21.941406 -45.214844 20.742188 -45.929688 19.5 -45.617188 L 11.507812 -43.605469 C 10.265625 -43.289062 9.546875 -42.09375 9.863281 -40.847656 L 12.257812 -31.328125 C 12.574219 -30.082031 11.855469 -28.886719 10.613281 -28.570312 C 9.417969 -28.269531 8.21875 -28.988281 7.90625 -30.230469 L 5.507812 -39.753906 C 5.195312 -40.996094 3.996094 -41.710938 2.753906 -41.398438 L -5.238281 -39.386719 C -6.480469 -39.074219 -7.199219 -37.875 -6.882812 -36.632812 L 1.648438 -2.753906 C 1.960938 -1.511719 3.15625 -0.796875 4.402344 -1.109375 Z M 4.402344 -1.109375 "/></g></g></g><g fill="#000000" fill-opacity="1"><g transform="translate(86.271128, 205.532954)"><g><path d="M 4.46875 -0.800781 L 12.578125 -2.253906 C 13.84375 -2.476562 14.640625 -3.625 14.414062 -4.886719 L 13.292969 -11.152344 C 13.066406 -12.414062 13.863281 -13.558594 15.078125 -13.777344 C 16.339844 -14.003906 17.496094 -13.15625 17.710938 -11.941406 L 18.832031 -5.675781 C 19.058594 -4.414062 20.203125 -3.617188 21.46875 -3.84375 L 29.578125 -5.296875 C 30.839844 -5.523438 31.640625 -6.667969 31.414062 -7.929688 L 26.804688 -33.671875 C 25.671875 -39.984375 20.289062 -43.734375 13.976562 -42.601562 L 6.15625 -41.203125 C -0.15625 -40.074219 -3.90625 -34.691406 -2.773438 -28.375 L 1.835938 -2.632812 C 2.058594 -1.371094 3.207031 -0.574219 4.46875 -0.800781 Z M 13.460938 -22.8125 C 12.246094 -22.59375 11.101562 -23.390625 10.882812 -24.605469 L 10.082031 -29.074219 C 9.855469 -30.335938 10.65625 -31.480469 11.867188 -31.699219 C 13.132812 -31.925781 14.277344 -31.128906 14.503906 -29.863281 L 15.304688 -25.398438 C 15.519531 -24.183594 14.722656 -23.035156 13.460938 -22.8125 Z M 13.460938 -22.8125 "/></g></g></g><g fill="#000000" fill-opacity="1"><g transform="translate(118.879861, 199.494992)"><g><path d="M 4.515625 -0.453125 L 12.714844 -1.277344 C 13.992188 -1.40625 14.871094 -2.535156 14.742188 -3.8125 L 13.71875 -13.976562 C 13.597656 -15.203125 14.480469 -16.28125 15.707031 -16.40625 L 23.070312 -17.144531 C 24.347656 -17.273438 25.429688 -16.390625 25.550781 -15.164062 L 26.578125 -4.953125 C 26.707031 -3.675781 27.785156 -2.792969 29.0625 -2.921875 L 37.261719 -3.746094 C 38.539062 -3.875 39.417969 -5.003906 39.289062 -6.277344 L 38.171875 -17.375 C 37.9375 -19.730469 36.101562 -21.230469 33.742188 -20.996094 L 33.300781 -20.949219 C 32.074219 -20.828125 30.992188 -21.710938 30.871094 -22.9375 C 30.742188 -24.214844 31.625 -25.296875 32.851562 -25.417969 L 33.148438 -25.449219 C 35.550781 -25.691406 37.140625 -27.636719 36.902344 -30.039062 L 36.476562 -34.261719 C 35.953125 -39.464844 31.792969 -42.867188 26.589844 -42.34375 L 0.570312 -39.730469 C -0.707031 -39.601562 -1.589844 -38.519531 -1.460938 -37.242188 L 2.03125 -2.484375 C 2.160156 -1.207031 3.238281 -0.324219 4.515625 -0.453125 Z M 14.707031 -26.371094 C 13.480469 -26.25 12.398438 -27.132812 12.273438 -28.359375 C 12.152344 -29.585938 13.035156 -30.667969 14.261719 -30.789062 L 21.625 -31.53125 C 22.902344 -31.660156 23.984375 -30.777344 24.105469 -29.546875 C 24.230469 -28.320312 23.347656 -27.242188 22.070312 -27.113281 Z M 14.707031 -26.371094 "/></g></g></g><g fill="#000000" fill-opacity="1"><g transform="translate(159.093082, 195.385879)"><g><path d="M 4.539062 -0.0703125 L 37.496094 -0.585938 C 38.777344 -0.609375 39.75 -1.609375 39.726562 -2.894531 L 39.636719 -8.765625 C 39.617188 -10.046875 38.613281 -11.019531 37.332031 -10.996094 L 17.105469 -10.679688 C 15.871094 -10.660156 14.867188 -11.632812 14.847656 -12.867188 C 14.828125 -14.097656 15.800781 -15.152344 17.035156 -15.167969 L 35.289062 -15.457031 C 36.570312 -15.476562 37.542969 -16.476562 37.519531 -17.761719 L 37.441406 -22.941406 C 37.421875 -24.222656 36.417969 -25.195312 35.136719 -25.175781 L 16.882812 -24.890625 C 15.648438 -24.871094 14.644531 -25.839844 14.625 -27.074219 C 14.605469 -28.355469 15.578125 -29.359375 16.8125 -29.378906 L 37.039062 -29.695312 C 38.320312 -29.714844 39.292969 -30.71875 39.273438 -32 L 39.179688 -37.820312 C 39.160156 -39.105469 38.160156 -40.074219 36.875 -40.054688 L 3.921875 -39.539062 C 2.636719 -39.519531 1.667969 -38.515625 1.6875 -37.234375 L 2.234375 -2.304688 C 2.253906 -1.023438 3.257812 -0.0507812 4.539062 -0.0703125 Z M 4.539062 -0.0703125 "/></g></g></g><g fill="#000000" fill-opacity="1"><g transform="translate(200.033466, 195.095433)"><g/></g></g><g fill="#000000" fill-opacity="1"><g transform="translate(214.685739, 195.451683)"><g><path d="M 4.519531 0.421875 L 21.175781 1.96875 C 27.5625 2.5625 32.613281 -1.675781 33.207031 -8.0625 L 34.8125 -25.304688 C 35.40625 -31.691406 31.214844 -36.742188 24.828125 -37.335938 L 8.175781 -38.882812 C 6.898438 -39 5.824219 -38.109375 5.703125 -36.832031 L 2.46875 -2.050781 C 2.351562 -0.773438 3.242188 0.300781 4.519531 0.421875 Z M 18.136719 -8.523438 C 16.90625 -8.636719 16.015625 -9.710938 16.132812 -10.9375 L 17.492188 -25.578125 C 17.609375 -26.855469 18.683594 -27.746094 19.914062 -27.632812 C 21.191406 -27.515625 22.082031 -26.441406 21.964844 -25.164062 L 20.601562 -10.523438 C 20.488281 -9.292969 19.414062 -8.402344 18.136719 -8.523438 Z M 18.136719 -8.523438 "/></g></g></g><g fill="#000000" fill-opacity="1"><g transform="translate(247.838023, 198.489366)"><g><path d="M 13.148438 2.152344 L 20.988281 3.4375 C 27.316406 4.472656 32.652344 0.59375 33.6875 -5.734375 L 36.484375 -22.824219 C 37.523438 -29.15625 33.695312 -34.480469 27.363281 -35.519531 L 19.523438 -36.800781 C 13.195312 -37.839844 7.867188 -34.011719 6.832031 -27.679688 L 4.035156 -10.589844 C 2.996094 -4.257812 6.816406 1.117188 13.148438 2.152344 Z M 18.683594 -7.242188 C 17.46875 -7.441406 16.652344 -8.574219 16.851562 -9.789062 L 19.226562 -24.300781 C 19.433594 -25.566406 20.570312 -26.382812 21.785156 -26.183594 C 23.050781 -25.976562 23.867188 -24.839844 23.660156 -23.574219 L 21.285156 -9.066406 C 21.085938 -7.847656 19.949219 -7.035156 18.683594 -7.242188 Z M 18.683594 -7.242188 "/></g></g></g><g fill="#000000" fill-opacity="1"><g transform="translate(280.596851, 203.651487)"><g><path d="M 12.941406 3.15625 L 36.382812 8.875 C 37.628906 9.179688 38.832031 8.40625 39.136719 7.160156 L 40.691406 0.785156 C 40.996094 -0.460938 40.273438 -1.652344 39.027344 -1.957031 L 19.421875 -6.742188 C 18.222656 -7.03125 17.496094 -8.226562 17.789062 -9.425781 L 20.804688 -21.792969 C 21.109375 -23.039062 22.304688 -23.761719 23.5 -23.46875 L 43.105469 -18.6875 C 44.351562 -18.382812 45.546875 -19.109375 45.851562 -20.355469 L 47.40625 -26.730469 C 47.710938 -27.976562 46.984375 -29.167969 45.738281 -29.472656 L 22.296875 -35.191406 C 16.066406 -36.710938 10.460938 -33.304688 8.941406 -27.074219 L 4.835938 -10.246094 C 3.316406 -4.015625 6.710938 1.636719 12.941406 3.15625 Z M 12.941406 3.15625 "/></g></g></g><g fill="#000000" fill-opacity="1"><g transform="translate(319.884335, 213.167266)"><g><path d="M 4.304688 1.445312 L 27.414062 9.195312 C 33.351562 11.191406 39.117188 8.285156 41.109375 2.34375 L 42.128906 -0.699219 C 44.121094 -6.636719 41.261719 -12.386719 35.324219 -14.378906 L 24.28125 -18.082031 C 23.113281 -18.476562 22.492188 -19.726562 22.882812 -20.894531 C 23.292969 -22.109375 24.542969 -22.730469 25.710938 -22.339844 L 44.84375 -15.921875 C 46.058594 -15.511719 47.308594 -16.132812 47.71875 -17.351562 L 49.492188 -22.636719 C 49.898438 -23.851562 49.277344 -25.101562 48.0625 -25.511719 L 24.953125 -33.265625 C 19.011719 -35.257812 13.261719 -32.398438 11.269531 -26.457031 L 10.25 -23.414062 C 8.257812 -17.476562 11.117188 -11.726562 17.058594 -9.734375 L 28.050781 -6.046875 C 29.265625 -5.636719 29.871094 -4.339844 29.480469 -3.171875 C 29.089844 -2.003906 27.839844 -1.382812 26.621094 -1.789062 L 7.535156 -8.191406 C 6.320312 -8.601562 5.070312 -7.980469 4.664062 -6.761719 L 2.875 -1.429688 C 2.464844 -0.214844 3.085938 1.035156 4.304688 1.445312 Z M 4.304688 1.445312 "/></g></g></g></svg>