<svg xmlns="http://www.w3.org/2000/svg" xmlns:xlink="http://www.w3.org/1999/xlink" width="500" zoomAndPan="magnify" viewBox="0 0 375 374.999991" height="500" preserveAspectRatio="xMidYMid meet" version="1.0"><defs><g/><clipPath id="3111cbc3ed"><path d="M 190.195312 93.929688 L 370.945312 93.929688 L 370.945312 240 L 190.195312 240 Z M 190.195312 93.929688 " clip-rule="nonzero"/></clipPath><clipPath id="28d2c44d6a"><path d="M 4.050781 118.699219 L 184.800781 118.699219 L 184.800781 264.949219 L 4.050781 264.949219 Z M 4.050781 118.699219 " clip-rule="nonzero"/></clipPath><clipPath id="dc5a3ff8ae"><path d="M 69.761719 64.347656 L 300.011719 64.347656 L 300.011719 294.597656 L 69.761719 294.597656 Z M 69.761719 64.347656 " clip-rule="nonzero"/></clipPath><clipPath id="fe7cd3e7f4"><path d="M 291.363281 93.929688 L 332.613281 93.929688 L 332.613281 114.929688 L 291.363281 114.929688 Z M 291.363281 93.929688 " clip-rule="nonzero"/></clipPath><clipPath id="cbfde6c3e2"><path d="M 38.867188 240.632812 L 86.117188 240.632812 L 86.117188 264.632812 L 38.867188 264.632812 Z M 38.867188 240.632812 " clip-rule="nonzero"/></clipPath></defs><g clip-path="url(#3111cbc3ed)"><path fill="#ffffff" d="M 249.667969 239.984375 C 228.285156 239.984375 208.203125 237.457031 190.757812 233.011719 C 202.765625 234.84375 215.605469 235.824219 228.953125 235.824219 C 295.863281 235.824219 350.105469 211.070312 350.105469 180.527344 C 350.105469 159.753906 324.996094 141.65625 287.867188 132.199219 C 336.058594 139.503906 370.816406 160.238281 370.816406 184.695312 C 370.816406 215.226562 316.574219 239.984375 249.667969 239.984375 Z M 251.914062 123.023438 L 251.914062 122.578125 C 278.625 122.578125 280.5625 118.234375 280.5625 93.851562 L 281.011719 93.851562 C 281.011719 118.234375 282.960938 122.578125 309.671875 122.578125 L 309.671875 123.023438 C 282.960938 123.023438 281.011719 127.355469 281.011719 151.738281 L 280.5625 151.738281 C 280.5625 127.355469 278.625 123.023438 251.914062 123.023438 " fill-opacity="1" fill-rule="evenodd"/></g><g clip-path="url(#28d2c44d6a)"><path fill="#ffffff" d="M 125.328125 118.898438 C 146.710938 118.898438 166.792969 121.425781 184.238281 125.867188 C 172.230469 124.039062 159.390625 123.054688 146.039062 123.054688 C 79.132812 123.054688 24.890625 147.808594 24.890625 178.355469 C 24.890625 199.125 50 217.222656 87.128906 226.683594 C 38.933594 219.378906 4.175781 198.640625 4.175781 174.183594 C 4.175781 143.652344 58.417969 118.898438 125.328125 118.898438 Z M 123.078125 235.855469 L 123.078125 236.304688 C 96.367188 236.304688 94.429688 240.648438 94.429688 265.03125 L 93.984375 265.03125 C 93.984375 240.648438 92.035156 236.304688 65.324219 236.304688 L 65.324219 235.855469 C 92.035156 235.855469 93.984375 231.523438 93.984375 207.140625 L 94.429688 207.140625 C 94.429688 231.523438 96.367188 235.855469 123.078125 235.855469 " fill-opacity="1" fill-rule="evenodd"/></g><g clip-path="url(#dc5a3ff8ae)"><path fill="#ffffff" d="M 184.964844 294.59375 C 184.964844 294.59375 184.953125 294.59375 184.941406 294.59375 L 181.449219 294.542969 L 181.441406 294.542969 L 178.066406 294.464844 C 178.058594 294.464844 178.039062 294.464844 178.027344 294.464844 L 174.886719 294.34375 C 174.867188 294.34375 174.859375 294.34375 174.839844 294.34375 L 172.011719 294.171875 C 171.992188 294.171875 171.980469 294.171875 171.960938 294.171875 L 169.539062 293.957031 C 169.519531 293.957031 169.496094 293.957031 169.476562 293.949219 L 167.539062 293.707031 C 167.519531 293.707031 167.507812 293.707031 167.488281 293.695312 L 166.054688 293.425781 L 163.046875 292.605469 L 147.621094 288.773438 C 147.613281 288.773438 147.613281 288.773438 147.601562 288.761719 C 147.59375 288.761719 147.582031 288.753906 147.570312 288.753906 L 145.976562 288.207031 C 145.957031 288.195312 145.9375 288.1875 145.917969 288.175781 L 130.996094 281.234375 L 129.140625 280.519531 L 127.878906 279.941406 C 127.835938 279.921875 127.796875 279.902344 127.757812 279.871094 L 111.394531 268.550781 C 111.351562 268.519531 111.320312 268.5 111.28125 268.460938 L 97.097656 254.402344 C 97.070312 254.375 97.039062 254.34375 97.019531 254.304688 L 85.460938 237.855469 C 85.4375 237.824219 85.417969 237.785156 85.398438 237.753906 L 76.859375 219.492188 C 76.839844 219.449219 76.820312 219.410156 76.808594 219.359375 L 76.777344 219.226562 L 71.578125 199.855469 C 71.570312 199.824219 71.558594 199.785156 71.558594 199.753906 L 71.527344 199.550781 C 71.519531 199.511719 71.507812 199.480469 71.507812 199.441406 L 69.773438 179.714844 L 69.773438 179.703125 L 69.761719 179.632812 C 69.761719 179.582031 69.761719 179.53125 69.773438 179.480469 L 69.773438 179.359375 L 71.5 159.574219 L 71.550781 159.230469 C 71.558594 159.1875 71.558594 159.148438 71.578125 159.109375 L 71.609375 158.996094 L 76.796875 139.632812 C 76.808594 139.59375 76.828125 139.542969 76.839844 139.503906 L 85.359375 121.238281 C 85.367188 121.207031 85.390625 121.179688 85.410156 121.148438 C 85.410156 121.136719 85.417969 121.136719 85.417969 121.128906 L 96.96875 104.679688 C 96.988281 104.648438 97.019531 104.609375 97.046875 104.578125 L 111.230469 90.480469 C 111.261719 90.453125 111.300781 90.421875 111.34375 90.390625 L 127.695312 79.058594 C 127.726562 79.03125 127.765625 79.007812 127.808594 78.988281 L 129.046875 78.425781 L 130.914062 77.707031 L 145.847656 70.753906 C 145.867188 70.746094 145.886719 70.734375 145.90625 70.726562 L 147.5 70.179688 C 147.53125 70.167969 147.5625 70.160156 147.59375 70.160156 L 147.601562 70.160156 L 165.945312 65.519531 L 167.417969 65.234375 C 167.429688 65.234375 167.449219 65.234375 167.457031 65.226562 L 169.417969 64.984375 C 169.425781 64.984375 169.4375 64.984375 169.449219 64.984375 L 171.902344 64.769531 C 171.910156 64.769531 171.910156 64.769531 171.921875 64.769531 L 174.777344 64.601562 C 174.789062 64.601562 174.789062 64.601562 174.796875 64.601562 L 177.96875 64.46875 L 177.976562 64.46875 L 181.371094 64.386719 L 181.390625 64.386719 L 184.871094 64.347656 L 184.882812 64.347656 L 188.394531 64.386719 C 188.40625 64.386719 188.40625 64.386719 188.414062 64.386719 L 191.796875 64.46875 L 191.808594 64.46875 L 194.988281 64.601562 C 194.996094 64.601562 194.996094 64.601562 195.007812 64.601562 L 197.855469 64.769531 C 197.863281 64.769531 197.863281 64.769531 197.875 64.769531 L 200.308594 64.984375 C 200.328125 64.984375 200.347656 64.984375 200.367188 64.992188 L 202.304688 65.234375 C 202.316406 65.234375 202.324219 65.234375 202.347656 65.246094 L 203.78125 65.519531 L 206.828125 66.34375 L 222.222656 70.167969 L 223.808594 70.714844 L 241.917969 78.96875 C 241.925781 78.96875 241.9375 78.980469 241.9375 78.980469 C 241.96875 78.988281 241.996094 79.007812 242.019531 79.03125 L 258.402344 90.359375 C 258.433594 90.382812 258.460938 90.410156 258.492188 90.433594 L 272.6875 104.519531 C 272.714844 104.546875 272.746094 104.578125 272.765625 104.621094 L 284.324219 121.058594 C 284.324219 121.066406 284.335938 121.066406 284.335938 121.078125 C 284.355469 121.105469 284.367188 121.136719 284.386719 121.167969 L 292.925781 139.421875 C 292.945312 139.460938 292.957031 139.503906 292.976562 139.554688 L 298.214844 159.066406 C 298.226562 159.089844 298.226562 159.117188 298.234375 159.136719 C 298.234375 159.148438 298.234375 159.160156 298.234375 159.167969 L 298.265625 159.429688 C 298.265625 159.453125 298.277344 159.480469 298.277344 159.5 L 300.011719 179.421875 C 300.011719 179.460938 300.011719 179.492188 300.011719 179.523438 L 298.285156 199.347656 C 298.285156 199.371094 298.285156 199.378906 298.277344 199.398438 C 298.277344 199.410156 298.277344 199.421875 298.277344 199.421875 L 298.246094 199.652344 C 298.246094 199.664062 298.246094 199.683594 298.234375 199.691406 C 298.234375 199.710938 298.226562 199.742188 298.226562 199.761719 L 292.996094 219.277344 C 292.984375 219.320312 292.964844 219.371094 292.945312 219.410156 L 284.414062 237.683594 C 284.394531 237.722656 284.375 237.753906 284.355469 237.792969 L 272.808594 254.242188 C 272.785156 254.273438 272.757812 254.3125 272.726562 254.332031 L 258.542969 268.429688 C 258.511719 268.460938 258.472656 268.492188 258.433594 268.519531 L 242.070312 279.851562 C 242.039062 279.871094 241.996094 279.894531 241.96875 279.914062 L 223.917969 288.15625 L 222.273438 288.722656 C 222.261719 288.722656 222.242188 288.730469 222.234375 288.730469 L 217.296875 289.984375 L 206.816406 292.578125 L 203.839844 293.382812 L 202.367188 293.667969 C 202.355469 293.667969 202.347656 293.667969 202.335938 293.667969 C 202.324219 293.667969 202.316406 293.667969 202.316406 293.667969 L 200.367188 293.910156 C 200.347656 293.910156 200.328125 293.910156 200.308594 293.917969 L 197.894531 294.128906 C 197.875 294.128906 197.863281 294.128906 197.84375 294.128906 L 195.027344 294.300781 C 195.007812 294.300781 194.996094 294.300781 194.976562 294.300781 L 191.835938 294.433594 C 191.828125 294.433594 191.808594 294.433594 191.796875 294.433594 L 188.425781 294.515625 L 188.414062 294.515625 L 184.921875 294.5625 C 184.984375 294.59375 184.972656 294.59375 184.964844 294.59375 Z M 181.742188 293.261719 L 184.335938 293.28125 L 184.335938 290.953125 L 179.480469 290.921875 Z M 185.609375 290.953125 L 185.609375 293.28125 L 188.203125 293.261719 L 190.464844 290.910156 Z M 178.238281 293.191406 L 179.925781 293.230469 L 177.683594 290.902344 L 173.828125 290.820312 Z M 192.261719 290.890625 L 190.019531 293.222656 L 191.707031 293.183594 L 196.117188 290.800781 Z M 175.03125 293.0625 L 175.34375 293.070312 L 171.03125 290.75 L 168.742188 290.660156 Z M 198.925781 290.738281 L 194.601562 293.070312 L 194.90625 293.0625 L 201.207031 290.660156 Z M 164.398438 290.488281 L 165.914062 290.960938 L 164.734375 290.507812 Z M 205.214844 290.488281 L 204.050781 290.933594 L 205.546875 290.46875 Z M 178.382812 289.628906 L 184.335938 289.671875 L 184.335938 283.707031 L 175.59375 283.644531 Z M 185.617188 283.707031 L 185.617188 289.671875 L 191.574219 289.621094 L 194.359375 283.644531 Z M 171.488281 289.480469 L 176.957031 289.601562 L 174.183594 283.636719 L 166.035156 283.464844 Z M 195.773438 283.625 L 193 289.589844 L 198.46875 289.46875 L 203.921875 283.453125 Z M 165.097656 289.238281 L 169.691406 289.417969 L 164.257812 283.433594 L 157.191406 283.183594 Z M 205.6875 283.414062 L 200.257812 289.40625 L 204.847656 289.226562 L 212.753906 283.152344 Z M 159.402344 288.914062 L 162.835938 289.117188 L 154.992188 283.089844 L 149.390625 282.789062 Z M 214.953125 283.070312 L 207.109375 289.09375 L 210.53125 288.894531 L 220.546875 282.757812 Z M 154.566406 288.511719 L 156.578125 288.679688 L 146.703125 282.636719 L 142.886719 282.335938 Z M 223.253906 282.605469 L 213.378906 288.660156 L 215.386719 288.488281 L 227.066406 282.304688 Z M 150.722656 288.046875 L 151.023438 288.085938 L 139.65625 282.070312 L 137.953125 281.878906 Z M 230.289062 282.042969 L 218.921875 288.054688 L 219.222656 288.015625 L 231.996094 281.839844 Z M 175.070312 282.375 L 184.335938 282.433594 L 184.335938 272.941406 L 172.304688 272.871094 Z M 185.617188 272.941406 L 185.617188 282.433594 L 194.886719 282.363281 L 197.652344 272.859375 Z M 164.933594 282.171875 L 173.726562 282.355469 L 170.960938 272.859375 L 159.515625 272.648438 Z M 198.984375 272.847656 L 196.21875 282.34375 L 205.011719 282.152344 L 210.433594 272.628906 Z M 155.535156 281.839844 L 163.441406 282.121094 L 158.03125 272.617188 L 147.691406 272.285156 Z M 211.925781 272.597656 L 206.515625 282.113281 L 214.410156 281.820312 L 222.253906 272.253906 Z M 147.167969 281.386719 L 153.800781 281.75 L 145.976562 272.222656 L 137.203125 271.789062 Z M 223.957031 272.195312 L 216.136719 281.730469 L 222.769531 281.367188 L 232.722656 271.757812 Z M 140.101562 280.832031 L 145.179688 281.234375 L 135.277344 271.6875 L 128.441406 271.203125 Z M 234.679688 271.648438 L 224.777344 281.203125 L 229.84375 280.800781 L 241.511719 271.164062 Z M 134.519531 280.195312 L 137.769531 280.570312 L 126.222656 271.03125 L 121.617188 270.558594 Z M 243.714844 270.992188 L 232.164062 280.539062 L 235.417969 280.164062 L 248.308594 270.519531 Z M 130.59375 279.507812 L 131.734375 279.710938 L 119.125 270.285156 L 117.066406 269.953125 Z M 250.8125 270.246094 L 238.203125 279.671875 L 239.332031 279.46875 L 252.851562 269.902344 Z M 171.980469 271.589844 L 184.335938 271.660156 L 184.335938 258.882812 L 169.457031 258.8125 Z M 185.617188 258.882812 L 185.617188 271.660156 L 197.984375 271.578125 L 200.507812 258.792969 Z M 158.847656 271.355469 L 170.667969 271.578125 L 168.144531 258.804688 L 153.910156 258.582031 Z M 201.800781 258.78125 L 199.277344 271.558594 L 211.097656 271.335938 L 216.035156 258.550781 Z M 146.683594 270.960938 L 157.464844 271.316406 L 152.527344 258.550781 L 139.535156 258.199219 Z M 217.417969 258.53125 L 212.492188 271.296875 L 223.273438 270.941406 L 230.410156 258.167969 Z M 135.882812 270.4375 L 145.179688 270.890625 L 138.054688 258.136719 L 126.835938 257.671875 Z M 231.894531 258.117188 L 224.765625 270.871094 L 234.054688 270.40625 L 243.097656 257.644531 Z M 126.796875 269.800781 L 134.238281 270.328125 L 125.210938 257.601562 L 116.199219 257.058594 Z M 244.734375 257.5625 L 235.710938 270.296875 L 243.148438 269.761719 L 253.738281 257.007812 Z M 119.691406 269.074219 L 124.992188 269.621094 L 114.453125 256.945312 L 107.980469 256.371094 Z M 255.496094 256.894531 L 244.957031 269.582031 L 250.246094 269.023438 L 261.964844 256.3125 Z M 114.746094 268.289062 L 117.652344 268.761719 L 106.050781 256.199219 L 102.367188 255.683594 Z M 263.875 256.140625 L 252.285156 268.710938 L 255.183594 268.238281 L 267.546875 255.613281 Z M 112.089844 267.480469 L 112.199219 267.511719 L 100.257812 255.351562 L 99.722656 255.199219 Z M 269.65625 255.292969 L 257.726562 267.460938 L 257.828125 267.429688 L 270.183594 255.152344 Z M 169.234375 257.53125 L 184.335938 257.601562 L 184.335938 241.941406 L 167.117188 241.882812 Z M 185.617188 241.941406 L 185.617188 257.601562 L 200.722656 257.523438 L 202.839844 241.871094 Z M 153.46875 257.289062 L 167.941406 257.511719 L 165.8125 241.859375 L 149.308594 241.660156 Z M 204.132812 241.851562 L 202.011719 257.5 L 216.488281 257.269531 L 220.636719 241.648438 Z M 138.878906 256.894531 L 152.144531 257.257812 L 147.996094 241.648438 L 132.882812 241.328125 Z M 221.960938 241.617188 L 217.8125 257.230469 L 231.066406 256.855469 L 237.0625 241.277344 Z M 125.960938 256.363281 L 137.476562 256.847656 L 131.492188 241.285156 L 118.367188 240.851562 Z M 238.453125 241.253906 L 232.46875 256.816406 L 243.988281 256.332031 L 251.578125 240.820312 Z M 115.148438 255.714844 L 124.496094 256.28125 L 116.914062 240.8125 L 106.265625 240.308594 Z M 253.011719 240.761719 L 245.441406 256.242188 L 254.789062 255.664062 L 263.652344 240.246094 Z M 106.738281 254.980469 L 113.59375 255.585938 L 104.75 240.214844 L 96.9375 239.671875 Z M 265.175781 240.167969 L 256.332031 255.535156 L 263.175781 254.917969 L 272.980469 239.609375 Z M 100.964844 254.183594 L 105.082031 254.757812 L 95.34375 239.539062 L 90.609375 239.015625 Z M 274.582031 239.488281 L 264.84375 254.707031 L 268.949219 254.132812 L 279.296875 238.964844 Z M 97.9375 253.382812 L 99.085938 253.707031 L 88.910156 238.8125 L 87.457031 238.492188 Z M 281.003906 238.734375 L 270.839844 253.636719 L 271.980469 253.324219 L 282.449219 238.410156 Z M 166.964844 240.601562 L 184.335938 240.660156 L 184.335938 222.679688 L 165.359375 222.628906 Z M 185.609375 222.679688 L 185.609375 240.660156 L 202.980469 240.578125 L 204.585938 222.617188 Z M 149.015625 240.386719 L 165.683594 240.589844 L 164.078125 222.628906 L 145.886719 222.476562 Z M 205.867188 222.617188 L 204.265625 240.578125 L 220.921875 240.367188 L 224.050781 222.457031 Z M 132.429688 240.035156 L 147.714844 240.359375 L 144.574219 222.46875 L 127.898438 222.226562 Z M 225.363281 222.4375 L 222.234375 240.335938 L 237.507812 239.996094 L 242.027344 222.175781 Z M 117.792969 239.5625 L 131.097656 239.996094 L 126.566406 222.195312 L 112.058594 221.871094 Z M 243.351562 222.15625 L 238.828125 239.953125 L 252.132812 239.511719 L 257.847656 221.820312 Z M 105.589844 238.984375 L 116.441406 239.5 L 110.726562 221.832031 L 98.914062 221.449219 Z M 259.210938 221.792969 L 253.496094 239.460938 L 264.335938 238.933594 L 271.011719 221.398438 Z M 96.148438 238.339844 L 104.183594 238.90625 L 97.523438 221.40625 L 88.789062 220.984375 Z M 272.402344 221.335938 L 265.75 238.84375 L 273.777344 238.277344 L 281.136719 220.914062 Z M 89.730469 237.644531 L 94.707031 238.199219 L 87.355469 220.902344 L 81.945312 220.488281 Z M 282.546875 220.832031 L 275.21875 238.128906 L 280.1875 237.574219 L 287.960938 220.410156 Z M 86.429688 236.9375 L 88.183594 237.332031 L 80.472656 220.339844 L 78.515625 220.023438 Z M 289.421875 220.265625 L 281.730469 237.261719 L 283.476562 236.867188 L 291.371094 219.953125 Z M 165.257812 221.355469 L 184.328125 221.40625 L 184.328125 201.792969 L 164.257812 201.769531 Z M 185.609375 201.792969 L 185.609375 221.40625 L 204.679688 221.347656 L 205.667969 201.761719 Z M 145.695312 221.195312 L 163.984375 221.347656 L 162.976562 201.761719 L 143.734375 201.679688 Z M 206.949219 201.75 L 205.960938 221.335938 L 224.25 221.175781 L 226.199219 201.660156 Z M 127.636719 220.945312 L 144.414062 221.1875 L 142.453125 201.679688 L 124.808594 201.550781 Z M 227.472656 201.648438 L 225.523438 221.15625 L 242.289062 220.902344 L 245.097656 201.519531 Z M 111.714844 220.589844 L 126.332031 220.914062 L 123.515625 201.539062 L 108.164062 201.367188 Z M 246.398438 201.5 L 243.59375 220.871094 L 258.199219 220.539062 L 261.742188 201.328125 Z M 98.480469 220.167969 L 110.414062 220.558594 L 106.859375 201.367188 L 94.34375 201.164062 Z M 263.054688 201.308594 L 259.511719 220.5 L 271.433594 220.105469 L 275.574219 201.09375 Z M 88.304688 219.683594 L 97.167969 220.105469 L 93.03125 201.125 L 83.742188 200.902344 Z M 276.886719 201.066406 L 272.757812 220.046875 L 281.609375 219.613281 L 286.164062 200.832031 Z M 81.421875 219.167969 L 86.964844 219.589844 L 82.410156 200.863281 L 76.605469 200.640625 Z M 287.484375 200.792969 L 282.941406 219.519531 L 288.472656 219.085938 L 293.277344 200.558594 Z M 77.9375 218.644531 L 80.046875 218.976562 L 75.253906 200.558594 L 73.03125 200.378906 Z M 294.632812 200.46875 L 289.847656 218.90625 L 291.945312 218.570312 L 296.863281 200.195312 Z M 164.207031 200.488281 L 184.316406 200.511719 L 184.308594 180.054688 L 163.855469 180.066406 Z M 185.597656 180.054688 L 185.609375 200.511719 L 205.71875 200.480469 L 206.050781 180.054688 Z M 143.644531 200.410156 L 162.9375 200.488281 L 162.59375 180.066406 L 142.980469 180.078125 Z M 207.324219 180.054688 L 206.988281 200.480469 L 226.269531 200.390625 L 226.925781 180.054688 Z M 124.675781 200.277344 L 142.363281 200.410156 L 141.695312 180.078125 L 123.71875 180.085938 Z M 228.207031 180.046875 L 227.550781 200.378906 L 245.238281 200.238281 L 246.1875 180.046875 Z M 107.992188 200.097656 L 123.394531 200.269531 L 122.4375 180.085938 L 106.78125 180.097656 Z M 247.46875 180.046875 L 246.519531 200.226562 L 261.914062 200.046875 L 263.117188 180.046875 Z M 94.140625 199.875 L 106.71875 200.074219 L 105.507812 180.097656 L 92.738281 180.105469 Z M 264.398438 180.046875 L 263.195312 200.027344 L 275.765625 199.8125 L 277.15625 180.046875 Z M 83.511719 199.621094 L 92.859375 199.84375 L 91.457031 180.105469 L 81.964844 180.117188 Z M 278.449219 180.046875 L 277.058594 199.785156 L 286.394531 199.550781 L 287.929688 180.046875 Z M 76.355469 199.347656 L 82.21875 199.582031 L 80.675781 180.117188 L 74.71875 180.128906 Z M 289.210938 180.046875 L 287.675781 199.5 L 293.53125 199.269531 L 295.15625 180.046875 Z M 72.761719 199.078125 L 75.0625 199.269531 L 73.4375 180.128906 L 71.09375 180.136719 Z M 296.4375 180.046875 L 294.824219 199.15625 L 297.125 198.875 L 298.761719 180.054688 Z M 72.761719 159.90625 L 71.09375 178.855469 L 73.4375 178.84375 L 75.050781 159.703125 Z M 76.34375 159.621094 L 74.71875 178.84375 L 80.675781 178.835938 L 82.207031 159.378906 Z M 83.492188 159.339844 L 81.957031 178.84375 L 91.445312 178.835938 L 92.839844 159.097656 Z M 94.121094 159.066406 L 92.726562 178.824219 L 105.496094 178.816406 L 106.6875 158.835938 Z M 107.980469 158.824219 L 106.78125 178.824219 L 122.4375 178.816406 L 123.386719 158.632812 Z M 124.667969 158.613281 L 123.71875 178.804688 L 141.695312 178.796875 L 142.351562 158.472656 Z M 143.636719 158.460938 L 142.980469 178.796875 L 162.59375 178.785156 L 162.925781 158.363281 Z M 164.199219 158.363281 L 163.863281 178.785156 L 184.316406 178.773438 L 184.308594 158.320312 Z M 185.589844 158.332031 L 185.597656 178.785156 L 206.050781 178.773438 L 205.707031 158.351562 Z M 296.4375 178.773438 L 298.761719 178.785156 L 297.105469 159.957031 L 294.8125 159.664062 Z M 206.980469 158.351562 L 207.324219 178.773438 L 226.925781 178.773438 L 226.25 158.441406 Z M 289.210938 178.765625 L 295.15625 178.765625 L 293.519531 159.542969 L 287.667969 159.300781 Z M 227.542969 158.441406 L 228.207031 178.765625 L 246.1875 178.765625 L 245.21875 158.574219 Z M 278.449219 178.765625 L 287.929688 178.765625 L 286.375 159.257812 L 277.035156 159.027344 Z M 246.5 158.582031 L 247.46875 178.765625 L 263.117188 178.765625 L 261.90625 158.765625 Z M 264.398438 178.765625 L 277.167969 178.765625 L 275.753906 158.996094 L 263.1875 158.785156 Z M 294.613281 158.351562 L 296.851562 158.632812 L 291.917969 140.257812 L 289.816406 139.917969 Z M 77.917969 140.339844 L 73.03125 158.605469 L 75.253906 158.410156 L 80.027344 139.996094 Z M 81.390625 139.804688 L 76.585938 158.332031 L 82.390625 158.089844 L 86.933594 139.371094 Z M 287.476562 158.019531 L 293.269531 158.25 L 288.445312 139.722656 L 282.910156 139.289062 Z M 88.277344 139.269531 L 83.722656 158.046875 L 93.011719 157.808594 L 97.128906 138.835938 Z M 276.863281 157.746094 L 286.140625 157.976562 L 281.570312 139.199219 L 272.714844 138.765625 Z M 98.453125 138.777344 L 94.324219 157.785156 L 106.839844 157.566406 L 110.382812 138.363281 Z M 263.046875 157.503906 L 275.554688 157.714844 L 271.402344 138.707031 L 259.480469 138.3125 Z M 111.695312 138.332031 L 108.152344 157.542969 L 123.507812 157.351562 L 126.300781 137.980469 Z M 246.390625 157.3125 L 261.734375 157.492188 L 258.167969 138.28125 L 243.5625 137.949219 Z M 127.605469 137.957031 L 124.796875 157.34375 L 142.433594 157.203125 L 144.371094 137.695312 Z M 227.460938 157.160156 L 245.097656 157.292969 L 242.269531 137.90625 L 225.503906 137.65625 Z M 145.664062 137.675781 L 143.726562 157.179688 L 162.964844 157.089844 L 163.957031 137.515625 Z M 206.9375 157.082031 L 226.179688 157.160156 L 224.222656 137.65625 L 205.941406 137.503906 Z M 165.226562 137.503906 L 164.238281 157.089844 L 184.308594 157.050781 L 184.296875 137.445312 Z M 185.589844 157.050781 L 205.65625 157.070312 L 204.648438 137.484375 L 185.578125 137.433594 Z M 86.386719 122.046875 L 78.492188 138.949219 L 80.453125 138.632812 L 88.144531 121.640625 Z M 289.394531 138.5625 L 291.339844 138.875 L 283.4375 121.976562 L 281.691406 121.570312 Z M 89.6875 121.328125 L 81.925781 138.492188 L 87.335938 138.058594 L 94.664062 120.765625 Z M 282.519531 137.988281 L 287.917969 138.414062 L 280.136719 121.257812 L 275.167969 120.695312 Z M 96.109375 120.613281 L 88.75 137.96875 L 97.480469 137.535156 L 104.132812 120.039062 Z M 272.371094 137.472656 L 281.09375 137.90625 L 273.726562 120.550781 L 265.699219 119.976562 Z M 105.539062 119.945312 L 98.875 137.484375 L 110.6875 137.082031 L 116.390625 119.410156 Z M 259.179688 137.019531 L 270.980469 137.414062 L 264.296875 119.886719 L 253.457031 119.363281 Z M 117.753906 119.351562 L 112.039062 137.039062 L 126.542969 136.695312 L 131.058594 118.898438 Z M 243.320312 136.65625 L 257.816406 136.988281 L 252.09375 119.300781 L 238.789062 118.855469 Z M 132.390625 118.855469 L 127.867188 136.667969 L 144.542969 136.40625 L 147.671875 118.515625 Z M 225.332031 136.382812 L 241.996094 136.636719 L 237.464844 118.828125 L 222.191406 118.492188 Z M 148.976562 118.492188 L 145.847656 136.394531 L 164.035156 136.234375 L 165.632812 118.28125 Z M 205.839844 136.210938 L 224.03125 136.363281 L 220.890625 118.472656 L 204.234375 118.273438 Z M 166.921875 118.261719 L 165.328125 136.222656 L 184.308594 136.164062 L 184.296875 118.191406 Z M 185.578125 136.164062 L 204.558594 136.210938 L 202.941406 118.25 L 185.570312 118.191406 Z M 97.886719 105.585938 L 87.417969 120.5 L 88.871094 120.167969 L 99.027344 105.265625 Z M 280.964844 120.097656 L 282.40625 120.429688 L 271.929688 105.539062 L 270.789062 105.214844 Z M 100.914062 104.769531 L 90.566406 119.9375 L 95.300781 119.402344 L 105.03125 104.183594 Z M 274.53125 119.339844 L 279.257812 119.875 L 268.898438 104.71875 L 264.792969 104.136719 Z M 106.6875 103.964844 L 96.898438 119.269531 L 104.710938 118.707031 L 113.542969 103.347656 Z M 265.136719 118.65625 L 272.9375 119.210938 L 263.125 103.914062 L 256.28125 103.296875 Z M 115.097656 103.214844 L 106.234375 118.636719 L 116.882812 118.109375 L 124.457031 102.640625 Z M 252.972656 118.058594 L 263.609375 118.574219 L 254.738281 103.167969 L 245.390625 102.589844 Z M 125.910156 102.550781 L 118.328125 118.050781 L 131.449219 117.605469 L 137.4375 102.054688 Z M 238.402344 117.574219 L 251.515625 118.007812 L 243.914062 102.511719 L 232.398438 102.027344 Z M 138.820312 102.003906 L 132.832031 117.574219 L 147.945312 117.230469 L 152.085938 101.621094 Z M 221.917969 117.210938 L 237.019531 117.546875 L 231.015625 101.984375 L 217.761719 101.621094 Z M 153.417969 101.59375 L 149.277344 117.210938 L 165.78125 117 L 167.894531 101.359375 Z M 204.082031 116.980469 L 220.585938 117.183594 L 216.429688 101.570312 L 201.953125 101.339844 Z M 169.183594 101.339844 L 167.074219 116.980469 L 184.296875 116.898438 L 184.285156 101.25 Z M 185.570312 116.910156 L 202.789062 116.96875 L 200.660156 101.328125 L 185.558594 101.257812 Z M 112.027344 91.480469 L 99.683594 103.761719 L 100.207031 103.609375 L 112.128906 91.449219 Z M 269.605469 103.550781 L 270.121094 103.691406 L 257.765625 91.429688 L 257.675781 91.402344 Z M 114.683594 90.675781 L 102.316406 103.289062 L 106.003906 102.761719 L 117.589844 90.199219 Z M 263.8125 102.703125 L 267.488281 103.226562 L 255.109375 90.625 L 252.214844 90.148438 Z M 119.628906 89.867188 L 107.921875 102.570312 L 114.390625 101.984375 L 124.917969 89.3125 Z M 255.433594 101.933594 L 261.90625 102.519531 L 250.183594 89.828125 L 244.894531 89.269531 Z M 126.738281 89.128906 L 116.148438 101.875 L 125.152344 101.320312 L 134.175781 88.585938 Z M 244.671875 101.269531 L 253.675781 101.824219 L 243.078125 89.089844 L 235.648438 88.554688 Z M 135.820312 88.472656 L 126.777344 101.238281 L 137.992188 100.753906 L 145.121094 88.011719 Z M 231.84375 100.722656 L 243.058594 101.199219 L 234.003906 88.445312 L 224.714844 87.980469 Z M 146.625 87.9375 L 139.484375 100.703125 L 152.476562 100.332031 L 157.394531 87.574219 Z M 217.367188 100.320312 L 230.347656 100.683594 L 223.203125 87.910156 L 212.421875 87.554688 Z M 158.789062 87.535156 L 153.859375 100.308594 L 168.09375 100.078125 L 170.609375 87.3125 Z M 201.75 100.066406 L 215.984375 100.289062 L 211.039062 87.527344 L 199.214844 87.304688 Z M 171.910156 87.292969 L 169.398438 100.066406 L 184.277344 99.988281 L 184.265625 87.222656 Z M 185.558594 99.976562 L 200.4375 100.046875 L 197.90625 87.285156 L 185.546875 87.214844 Z M 130.523438 79.433594 L 117.015625 88.988281 L 119.066406 88.65625 L 131.652344 79.230469 Z M 250.738281 88.605469 L 252.777344 88.9375 L 239.261719 79.402344 L 238.140625 79.199219 Z M 134.449219 78.738281 L 121.558594 88.375 L 126.152344 87.890625 L 137.691406 78.351562 Z M 243.652344 87.859375 L 248.238281 88.34375 L 235.335938 78.714844 L 232.09375 78.34375 Z M 140.03125 78.101562 L 128.371094 87.726562 L 135.207031 87.234375 L 145.097656 77.6875 Z M 234.617188 87.191406 L 241.441406 87.6875 L 229.773438 78.070312 L 224.707031 77.667969 Z M 147.097656 77.535156 L 137.144531 87.132812 L 145.917969 86.6875 L 153.730469 77.164062 Z M 223.898438 86.65625 L 232.660156 87.09375 L 222.695312 77.503906 L 216.066406 77.140625 Z M 155.464844 77.070312 L 147.621094 86.628906 L 157.960938 86.285156 L 163.359375 76.777344 Z M 211.855469 86.265625 L 222.191406 86.609375 L 214.339844 77.0625 L 206.445312 76.777344 Z M 164.863281 76.730469 L 159.453125 86.246094 L 170.910156 86.023438 L 173.667969 76.535156 Z M 198.925781 86.011719 L 210.371094 86.222656 L 204.949219 76.707031 L 196.15625 76.527344 Z M 175 76.515625 L 172.242188 86.011719 L 184.277344 85.929688 L 184.265625 76.445312 Z M 185.546875 85.929688 L 197.582031 86.003906 L 194.804688 76.507812 L 185.539062 76.445312 Z M 150.640625 70.886719 L 137.890625 77.050781 L 139.578125 76.859375 L 150.933594 70.847656 Z M 230.21875 76.828125 L 231.902344 77.019531 L 219.144531 70.867188 L 218.851562 70.824219 Z M 154.488281 70.421875 L 142.816406 76.597656 L 146.625 76.292969 L 156.484375 70.25 Z M 223.179688 76.253906 L 226.988281 76.558594 L 215.308594 70.390625 L 213.308594 70.21875 Z M 159.332031 70.007812 L 149.328125 76.132812 L 154.921875 75.820312 L 162.753906 69.804688 Z M 214.882812 75.800781 L 220.476562 76.113281 L 210.460938 70 L 207.039062 69.796875 Z M 165.027344 69.675781 L 157.132812 75.730469 L 164.1875 75.46875 L 169.609375 69.492188 Z M 205.617188 75.457031 L 212.671875 75.710938 L 204.769531 69.65625 L 200.175781 69.472656 Z M 171.40625 69.421875 L 165.964844 75.425781 L 174.109375 75.253906 L 176.886719 69.300781 Z M 195.703125 75.246094 L 203.851562 75.417969 L 198.390625 69.414062 L 192.917969 69.292969 Z M 178.300781 69.273438 L 175.523438 75.234375 L 184.265625 75.175781 L 184.257812 69.230469 Z M 185.546875 75.175781 L 194.289062 75.234375 L 191.503906 69.273438 L 185.546875 69.230469 Z M 165.742188 67.992188 L 164.347656 68.425781 L 164.652344 68.402344 Z M 205.132812 68.394531 L 205.433594 68.414062 L 204.0625 67.992188 Z M 174.949219 65.859375 L 168.671875 68.253906 L 171.003906 68.132812 L 175.242188 65.851562 Z M 198.851562 68.152344 L 201.125 68.242188 L 194.84375 65.851562 L 194.554688 65.839844 Z M 178.160156 65.730469 L 173.769531 68.089844 L 177.613281 68 L 179.84375 65.679688 Z M 192.179688 68 L 196.027344 68.082031 L 191.625 65.71875 L 189.941406 65.679688 Z M 181.660156 65.648438 L 179.410156 67.992188 L 184.257812 67.949219 L 184.257812 65.628906 Z M 185.539062 67.949219 L 190.382812 67.980469 L 188.121094 65.648438 L 185.527344 65.628906 Z M 185.539062 67.949219 " fill-opacity="1" fill-rule="nonzero"/></g><g clip-path="url(#fe7cd3e7f4)"><path fill="#ffffff" d="M 291.347656 104.523438 L 291.347656 104.359375 C 310.429688 104.359375 311.816406 102.785156 311.816406 93.953125 L 312.132812 93.953125 C 312.132812 102.785156 313.523438 104.359375 332.605469 104.359375 L 332.605469 104.523438 C 313.523438 104.523438 312.132812 106.09375 312.132812 114.925781 L 311.816406 114.925781 C 311.816406 106.09375 310.429688 104.523438 291.347656 104.523438 " fill-opacity="1" fill-rule="evenodd"/></g><g clip-path="url(#cbfde6c3e2)"><path fill="#ffffff" d="M 38.851562 252.738281 L 38.851562 252.554688 C 60.710938 252.554688 62.296875 250.757812 62.296875 240.664062 L 62.660156 240.664062 C 62.660156 250.757812 64.253906 252.554688 86.113281 252.554688 L 86.113281 252.738281 C 64.253906 252.738281 62.660156 254.535156 62.660156 264.628906 L 62.296875 264.628906 C 62.296875 254.535156 60.710938 252.738281 38.851562 252.738281 " fill-opacity="1" fill-rule="evenodd"/></g><path stroke-linecap="butt" transform="matrix(0.711035, -0.238597, 0.238597, 0.711035, 0.00715527, 180.703656)" fill="none" stroke-linejoin="miter" d="M 6.053996 64.000238 L 38.549762 63.999519 C 46.900168 63.999794 52.958661 57.880076 52.953998 49.528013 L 52.954334 45.253988 C 52.954641 36.887112 46.900771 30.845221 38.548708 30.849884 L 23.035404 30.846775 C 21.376855 30.845097 20.060227 29.529779 20.060249 27.876168 C 20.06037 26.173146 21.380625 24.858175 23.034236 24.858197 L 49.936708 24.859439 C 51.63973 24.85956 52.956704 23.537994 52.955201 21.82344 L 52.956907 14.401958 C 52.957061 12.682466 51.640433 11.367148 49.937412 11.367028 L 17.426832 11.362775 C 9.074769 11.367438 3.021346 17.422933 3.021071 25.773339 L 3.020736 30.047363 C 3.020428 38.41424 9.075955 44.451193 17.426362 44.451467 L 32.89685 44.451196 C 34.599871 44.451317 35.916334 45.848986 35.916345 47.486126 C 35.914699 49.128205 34.599382 50.444833 32.89636 50.444712 L 6.054831 50.441946 C 4.335339 50.441792 3.020022 51.758419 3.019868 53.477911 L 3.017997 60.981744 C 3.017876 62.684766 4.334504 64.000084 6.053996 64.000238 Z M 6.053996 64.000238 " stroke="#000000" stroke-width="9.86853" stroke-opacity="1" stroke-miterlimit="4"/><path stroke-linecap="butt" transform="matrix(0.727284, -0.18319, 0.18319, 0.727284, 42.05645, 166.837518)" fill="none" stroke-linejoin="miter" d="M 6.054439 63.998454 L 17.043086 64.000223 C 18.745892 63.999448 20.060699 62.681723 20.059924 60.978916 L 20.063027 47.809974 C 20.062252 46.107168 21.377058 44.789443 23.031865 44.78732 C 24.733399 44.791595 26.05101 46.170825 26.051785 47.873631 L 26.053847 60.979422 C 26.054622 62.682229 27.371075 64.002086 29.073881 64.001311 L 40.057478 64.001808 C 41.776708 63.999799 43.096565 62.683346 43.09579 60.980539 L 43.092353 14.402249 C 43.095395 12.684291 41.778942 11.364434 40.059712 11.366443 L 29.071065 11.364674 C 27.368258 11.365449 26.053452 12.683174 26.050411 14.401132 L 26.051238 27.490499 C 26.052013 29.193306 24.737207 30.511031 23.0344 30.511806 C 21.380866 30.508878 20.063141 29.194072 20.062366 27.491266 L 20.061538 14.401898 C 20.059529 12.682668 18.743076 11.362811 17.04027 11.363586 L 6.056673 11.363089 C 4.337443 11.365098 3.017586 12.681551 3.019595 14.400781 L 3.017981 60.977799 C 3.018756 62.680606 4.335209 64.000463 6.054439 63.998454 Z M 6.054439 63.998454 " stroke="#000000" stroke-width="9.86853" stroke-opacity="1" stroke-miterlimit="4"/><path stroke-linecap="butt" transform="matrix(0.738258, -0.132194, 0.132194, 0.738258, 77.620166, 157.953695)" fill="none" stroke-linejoin="miter" d="M 6.054885 64.000774 L 17.039604 63.999412 C 18.743676 63.997659 20.063647 62.683703 20.061895 60.979632 L 20.059715 52.481617 C 20.062172 50.78359 21.377934 49.463589 23.034028 49.463829 C 24.7381 49.462076 26.051293 50.845405 26.053808 52.486119 L 26.051779 60.978089 C 26.053532 62.68216 27.367488 64.002132 29.071559 64.000379 L 40.056279 63.999017 C 41.775731 64.000019 43.09662 62.680936 43.09395 60.981991 L 43.094989 26.108054 C 43.093572 17.546682 36.909233 11.365062 28.347861 11.366479 L 17.765629 11.365836 C 9.204257 11.367253 3.01751 17.550674 3.018928 26.112046 L 3.018806 60.980856 C 3.020559 62.684928 4.335433 63.999772 6.054885 64.000774 Z M 23.034911 37.225503 C 21.378817 37.225264 20.058816 35.909501 20.061428 34.269705 L 20.061565 28.211336 C 20.061649 26.497011 21.377412 25.17701 23.033506 25.17725 C 24.73666 25.180624 26.051534 26.495468 26.050532 28.21492 L 26.051312 34.268162 C 26.053827 35.908876 24.733856 37.222832 23.034911 37.225503 Z M 23.034911 37.225503 " stroke="#000000" stroke-width="9.86853" stroke-opacity="1" stroke-miterlimit="4"/><path stroke-linecap="butt" transform="matrix(0.74624, -0.0750081, 0.0750081, 0.74624, 113.919753, 151.398417)" fill="none" stroke-linejoin="miter" d="M 6.054439 63.999328 L 17.041828 63.999226 C 18.74324 63.997502 20.059776 62.61704 20.059615 60.900082 L 20.060847 47.295538 C 20.059617 45.641287 21.380267 44.324054 23.034518 44.322824 L 32.89627 44.32474 C 34.597681 44.323016 35.914915 45.643666 35.916145 47.297917 L 35.912282 60.980715 C 35.914006 62.682127 37.23176 63.997595 38.948718 63.997433 L 49.936108 63.997332 C 51.636998 64.00079 52.958717 62.620849 52.959076 60.898709 L 52.955245 46.042591 C 52.953747 42.880755 50.723307 40.646485 47.561471 40.647983 L 46.980515 40.647169 C 45.326785 40.643217 44.009031 39.327749 44.011421 37.689566 C 44.011259 35.972608 45.326727 34.654854 46.980978 34.653624 L 47.368108 34.655894 C 50.592651 34.655464 52.955515 32.291381 52.955085 29.066838 L 52.957966 23.413783 C 52.957373 16.441266 47.898227 11.36296 40.925709 11.363553 L 6.052756 11.365476 C 4.335799 11.365638 3.02033 12.683392 3.020492 14.40035 L 3.018002 60.98261 C 3.019727 62.684021 4.337481 63.999489 6.054439 63.999328 Z M 23.030955 30.974292 C 21.376704 30.975522 20.05895 29.660053 20.062902 28.006324 C 20.06011 26.36762 21.38076 25.050387 23.035011 25.049157 L 32.896763 25.051073 C 34.598174 25.049349 35.915929 26.364817 35.913539 28.003 C 35.914769 29.65725 34.599301 30.975004 32.892707 30.976208 Z M 23.030955 30.974292 " stroke="#000000" stroke-width="9.86853" stroke-opacity="1" stroke-miterlimit="4"/><path stroke-linecap="butt" transform="matrix(0.749908, -0.0117589, 0.0117589, 0.749908, 158.21595, 147.052022)" fill="none" stroke-linejoin="miter" d="M 6.053099 64.002162 L 50.001269 63.998497 C 51.704593 63.999161 53.022295 62.681117 53.022959 60.977793 L 53.02079 53.143462 C 53.021454 51.440138 51.70341 50.122436 50.000086 50.121772 L 23.033243 50.120846 C 21.376788 50.120916 20.063952 48.803296 20.063799 47.152049 C 20.063483 45.511217 21.376958 44.130599 23.033412 44.130528 L 47.36451 44.131797 C 49.083457 44.132706 50.401159 42.814662 50.401823 41.111338 L 50.400742 34.204221 C 50.401651 32.485274 49.083607 31.167572 47.364659 31.166663 L 23.03348 31.170602 C 21.377026 31.170673 20.058982 29.852971 20.063873 28.212221 C 20.059575 26.493192 21.377195 25.180356 23.03365 25.180285 L 50.000575 25.176004 C 51.703899 25.176668 53.021601 23.858624 53.022184 22.160507 L 53.018871 14.399084 C 53.01978 12.680137 51.701736 11.362435 50.003538 11.36706 L 6.05545 11.365517 C 4.336502 11.364608 3.0188 12.682652 3.017891 14.401599 L 3.021979 60.980308 C 3.021315 62.683632 4.334152 64.001253 6.053099 64.002162 Z M 6.053099 64.002162 " stroke="#000000" stroke-width="9.86853" stroke-opacity="1" stroke-miterlimit="4"/><path stroke-linecap="butt" transform="matrix(0.746777, 0.069452, -0.069452, 0.746777, 219.051698, 147.319459)" fill="none" stroke-linejoin="miter" d="M 6.055708 64.001833 L 28.349238 63.999883 C 36.911955 63.998613 43.094575 57.753418 43.093305 49.1907 L 43.096799 26.112043 C 43.095529 17.549325 36.913047 11.366104 28.349847 11.362188 L 6.056318 11.364137 C 4.335669 11.367237 3.019498 12.682269 3.01693 14.398213 L 3.017893 60.978485 C 3.019546 62.683575 4.334577 63.999747 6.055708 64.001833 Z M 23.03465 50.444197 C 21.376233 50.441509 20.061202 49.125338 20.060632 47.488147 L 20.062366 27.87768 C 20.060713 26.17259 21.376885 24.857558 23.034819 24.85506 C 24.735206 24.859075 26.050237 26.175247 26.051408 27.875151 L 26.055343 47.490322 C 26.050726 49.127995 24.734554 50.443026 23.03465 50.444197 Z M 23.03465 50.444197 " stroke="#000000" stroke-width="9.86853" stroke-opacity="1" stroke-miterlimit="4"/><path stroke-linecap="butt" transform="matrix(0.740144, 0.121191, -0.121191, 0.740144, 255.544001, 150.785409)" fill="none" stroke-linejoin="miter" d="M 17.766634 64.001124 L 28.348154 63.99959 C 36.908918 64.001718 43.095133 57.753318 43.09726 49.192554 L 43.096241 26.108098 C 43.093229 17.548176 36.909033 11.367282 28.348269 11.365154 L 17.766748 11.366688 C 9.205984 11.364561 3.019951 17.549599 3.017823 26.110363 L 3.018 49.189679 C 3.021013 57.749601 9.20587 63.998997 17.766634 64.001124 Z M 23.030935 50.4463 C 21.378387 50.442448 20.060086 49.127776 20.060481 47.48635 L 20.06327 27.873991 C 20.059547 26.175184 21.379359 24.856041 23.031066 24.854753 C 24.735854 24.855329 26.054998 26.175141 26.05358 27.874789 L 26.050791 47.487148 C 26.050396 49.128574 24.734883 50.441736 23.030935 50.4463 Z M 23.030935 50.4463 " stroke="#000000" stroke-width="9.86853" stroke-opacity="1" stroke-miterlimit="4"/><path stroke-linecap="butt" transform="matrix(0.728627, 0.177772, -0.177772, 0.728627, 291.954595, 156.693052)" fill="none" stroke-linejoin="miter" d="M 17.763094 64.001957 L 49.934957 64.001279 C 51.639067 63.998313 52.959377 62.620042 52.957768 60.899518 L 52.954275 52.161759 C 52.95896 50.44506 51.640052 49.126349 49.935943 49.129315 L 23.033022 49.125774 C 21.376921 49.127749 20.063073 47.807804 20.060976 46.173177 L 20.062544 29.194154 C 20.059578 27.490045 21.379523 26.176197 23.035625 26.174222 L 49.937311 26.172703 C 51.637595 26.176031 52.956306 24.857124 52.954696 23.1366 L 52.957499 14.402666 C 52.955889 12.682142 51.636981 11.363431 49.937931 11.365162 L 17.766068 11.365841 C 9.203927 11.364013 3.019463 17.547798 3.017635 26.109939 L 3.019361 49.189102 C 3.017533 57.751242 9.200953 64.000129 17.763094 64.001957 Z M 17.763094 64.001957 " stroke="#000000" stroke-width="9.86853" stroke-opacity="1" stroke-miterlimit="4"/><path stroke-linecap="butt" transform="matrix(0.711035, 0.238597, -0.238597, 0.711035, 335.168243, 167.345951)" fill="none" stroke-linejoin="miter" d="M 6.054698 64.000036 L 38.550464 64.000754 C 46.90087 64.00048 52.956232 57.881176 52.955958 49.530769 L 52.955622 45.256745 C 52.955315 36.889869 46.900267 30.845907 38.549861 30.846181 L 23.03162 30.850947 C 21.376352 30.846031 20.061034 29.529403 20.061012 27.875792 C 20.060891 26.172771 21.377519 24.857453 23.03113 24.857431 L 49.93854 24.854533 C 51.636624 24.856069 52.958189 23.539094 52.958035 21.819602 L 52.95633 14.39812 C 52.957833 12.683566 51.640858 11.362 49.937836 11.362121 L 17.427257 11.366374 C 9.076851 11.366648 3.021356 17.420071 3.021631 25.770478 L 3.021966 30.044502 C 3.017336 38.413035 9.075664 44.450402 17.427728 44.455066 L 32.896559 44.450399 C 34.594643 44.451935 35.915063 45.849257 35.915052 47.486398 C 35.916698 49.128476 34.60007 50.443794 32.897048 50.443915 L 6.053862 50.441744 C 4.33437 50.441898 3.019399 51.762153 3.019553 53.481645 L 3.019767 60.98054 C 3.019888 62.683562 4.335206 64.00019 6.054698 64.000036 Z M 6.054698 64.000036 " stroke="#000000" stroke-width="9.86853" stroke-opacity="1" stroke-miterlimit="4"/><g fill="#ffffff" fill-opacity="1"><g transform="translate(15.277369, 226.209922)"><g><path d="M 4.304688 -1.445312 L 27.414062 -9.199219 C 33.351562 -11.191406 36.195312 -16.988281 34.203125 -22.925781 L 33.183594 -25.96875 C 31.191406 -31.910156 25.441406 -34.769531 19.5 -32.773438 L 8.460938 -29.070312 C 7.292969 -28.679688 6.042969 -29.300781 5.648438 -30.46875 C 5.242188 -31.6875 5.863281 -32.933594 7.03125 -33.328125 L 26.164062 -39.746094 C 27.382812 -40.15625 28.003906 -41.40625 27.59375 -42.621094 L 25.820312 -47.90625 C 25.414062 -49.125 24.164062 -49.746094 22.949219 -49.335938 L -0.160156 -41.582031 C -6.101562 -39.589844 -8.960938 -33.839844 -6.96875 -27.902344 L -5.949219 -24.859375 C -3.953125 -18.917969 1.792969 -16.058594 7.734375 -18.054688 L 18.726562 -21.742188 C 19.945312 -22.148438 21.207031 -21.480469 21.601562 -20.3125 C 21.992188 -19.144531 21.371094 -17.894531 20.15625 -17.484375 L 1.070312 -11.082031 C -0.144531 -10.671875 -0.769531 -9.421875 -0.359375 -8.207031 L 1.429688 -2.875 C 1.835938 -1.65625 3.085938 -1.035156 4.304688 -1.445312 Z M 4.304688 -1.445312 "/></g></g></g><g fill="#ffffff" fill-opacity="1"><g transform="translate(53.780582, 213.383672)"><g><path d="M 4.402344 -1.109375 L 12.394531 -3.121094 C 13.636719 -3.433594 14.351562 -4.632812 14.039062 -5.875 L 11.628906 -15.445312 C 11.316406 -16.691406 12.03125 -17.886719 13.226562 -18.191406 C 14.472656 -18.503906 15.683594 -17.738281 15.996094 -16.496094 L 18.394531 -6.972656 C 18.707031 -5.730469 19.90625 -5.011719 21.148438 -5.328125 L 29.140625 -7.339844 C 30.382812 -7.652344 31.097656 -8.851562 30.785156 -10.09375 L 22.253906 -43.972656 C 21.941406 -45.214844 20.742188 -45.929688 19.496094 -45.617188 L 11.507812 -43.605469 C 10.261719 -43.292969 9.546875 -42.09375 9.859375 -40.851562 L 12.257812 -31.328125 C 12.574219 -30.085938 11.855469 -28.886719 10.613281 -28.574219 C 9.417969 -28.273438 8.21875 -28.988281 7.90625 -30.230469 L 5.507812 -39.753906 C 5.191406 -40.996094 3.996094 -41.714844 2.75 -41.398438 L -5.238281 -39.386719 C -6.484375 -39.074219 -7.199219 -37.875 -6.886719 -36.632812 L 1.648438 -2.753906 C 1.960938 -1.511719 3.15625 -0.796875 4.402344 -1.109375 Z M 4.402344 -1.109375 "/></g></g></g><g fill="#ffffff" fill-opacity="1"><g transform="translate(86.080613, 205.202195)"><g><path d="M 4.46875 -0.800781 L 12.578125 -2.253906 C 13.84375 -2.480469 14.640625 -3.625 14.414062 -4.886719 L 13.292969 -11.152344 C 13.066406 -12.414062 13.863281 -13.558594 15.078125 -13.777344 C 16.339844 -14.003906 17.496094 -13.15625 17.710938 -11.945312 L 18.832031 -5.679688 C 19.058594 -4.414062 20.207031 -3.617188 21.46875 -3.84375 L 29.578125 -5.296875 C 30.84375 -5.523438 31.640625 -6.667969 31.414062 -7.929688 L 26.804688 -33.671875 C 25.671875 -39.988281 20.289062 -43.734375 13.976562 -42.605469 L 6.15625 -41.203125 C -0.15625 -40.074219 -3.90625 -34.691406 -2.773438 -28.375 L 1.835938 -2.632812 C 2.058594 -1.371094 3.207031 -0.574219 4.46875 -0.800781 Z M 13.460938 -22.8125 C 12.246094 -22.59375 11.101562 -23.390625 10.882812 -24.605469 L 10.082031 -29.074219 C 9.855469 -30.335938 10.652344 -31.484375 11.867188 -31.699219 C 13.132812 -31.925781 14.277344 -31.128906 14.503906 -29.867188 L 15.300781 -25.398438 C 15.519531 -24.183594 14.722656 -23.039062 13.460938 -22.8125 Z M 13.460938 -22.8125 "/></g></g></g><g fill="#ffffff" fill-opacity="1"><g transform="translate(118.720269, 199.157758)"><g><path d="M 4.515625 -0.453125 L 12.714844 -1.277344 C 13.992188 -1.40625 14.871094 -2.535156 14.742188 -3.8125 L 13.71875 -13.976562 C 13.597656 -15.203125 14.480469 -16.285156 15.707031 -16.40625 L 23.070312 -17.148438 C 24.347656 -17.273438 25.429688 -16.390625 25.550781 -15.164062 L 26.578125 -4.953125 C 26.707031 -3.675781 27.789062 -2.792969 29.0625 -2.921875 L 37.261719 -3.746094 C 38.539062 -3.875 39.417969 -5.003906 39.289062 -6.28125 L 38.175781 -17.375 C 37.9375 -19.730469 36.101562 -21.234375 33.742188 -20.996094 L 33.300781 -20.953125 C 32.074219 -20.828125 30.992188 -21.710938 30.871094 -22.9375 C 30.742188 -24.214844 31.625 -25.296875 32.851562 -25.417969 L 33.148438 -25.449219 C 35.554688 -25.691406 37.144531 -27.636719 36.902344 -30.042969 L 36.476562 -34.265625 C 35.953125 -39.46875 31.792969 -42.867188 26.589844 -42.34375 L 0.570312 -39.730469 C -0.707031 -39.601562 -1.589844 -38.519531 -1.460938 -37.246094 L 2.03125 -2.484375 C 2.160156 -1.207031 3.242188 -0.324219 4.515625 -0.453125 Z M 14.707031 -26.371094 C 13.480469 -26.25 12.398438 -27.132812 12.273438 -28.359375 C 12.152344 -29.585938 13.035156 -30.667969 14.261719 -30.792969 L 21.625 -31.53125 C 22.902344 -31.660156 23.984375 -30.777344 24.105469 -29.550781 C 24.230469 -28.320312 23.347656 -27.242188 22.070312 -27.113281 Z M 14.707031 -26.371094 "/></g></g></g><g fill="#ffffff" fill-opacity="1"><g transform="translate(158.968521, 195.046119)"><g><path d="M 4.539062 -0.0703125 L 37.496094 -0.589844 C 38.777344 -0.609375 39.75 -1.609375 39.730469 -2.894531 L 39.636719 -8.765625 C 39.617188 -10.046875 38.613281 -11.019531 37.332031 -10.996094 L 17.105469 -10.679688 C 15.871094 -10.660156 14.867188 -11.632812 14.847656 -12.867188 C 14.832031 -14.097656 15.800781 -15.152344 17.035156 -15.171875 L 35.289062 -15.457031 C 36.570312 -15.476562 37.542969 -16.480469 37.523438 -17.761719 L 37.441406 -22.941406 C 37.421875 -24.226562 36.417969 -25.195312 35.136719 -25.175781 L 16.882812 -24.890625 C 15.648438 -24.871094 14.644531 -25.839844 14.625 -27.074219 C 14.605469 -28.359375 15.578125 -29.359375 16.8125 -29.378906 L 37.039062 -29.695312 C 38.320312 -29.714844 39.292969 -30.71875 39.273438 -32 L 39.183594 -37.824219 C 39.160156 -39.105469 38.160156 -40.078125 36.875 -40.058594 L 3.921875 -39.539062 C 2.636719 -39.519531 1.667969 -38.519531 1.6875 -37.234375 L 2.234375 -2.304688 C 2.253906 -1.023438 3.257812 -0.0507812 4.539062 -0.0703125 Z M 4.539062 -0.0703125 "/></g></g></g><g fill="#ffffff" fill-opacity="1"><g transform="translate(199.93493, 194.755892)"><g/></g></g><g fill="#ffffff" fill-opacity="1"><g transform="translate(214.606768, 195.113207)"><g><path d="M 4.519531 0.421875 L 21.175781 1.96875 C 27.5625 2.5625 32.613281 -1.675781 33.207031 -8.0625 L 34.8125 -25.304688 C 35.40625 -31.691406 31.21875 -36.742188 24.832031 -37.335938 L 8.175781 -38.882812 C 6.898438 -39.003906 5.824219 -38.113281 5.707031 -36.835938 L 2.46875 -2.050781 C 2.351562 -0.773438 3.242188 0.300781 4.519531 0.421875 Z M 18.136719 -8.523438 C 16.910156 -8.636719 16.015625 -9.710938 16.132812 -10.9375 L 17.492188 -25.578125 C 17.613281 -26.855469 18.6875 -27.746094 19.914062 -27.632812 C 21.191406 -27.515625 22.082031 -26.441406 21.964844 -25.164062 L 20.601562 -10.523438 C 20.488281 -9.292969 19.414062 -8.402344 18.136719 -8.523438 Z M 18.136719 -8.523438 "/></g></g></g><g fill="#ffffff" fill-opacity="1"><g transform="translate(247.787774, 198.154605)"><g><path d="M 13.148438 2.152344 L 20.988281 3.4375 C 27.316406 4.472656 32.652344 0.597656 33.6875 -5.734375 L 36.488281 -22.824219 C 37.523438 -29.15625 33.695312 -34.480469 27.367188 -35.519531 L 19.527344 -36.800781 C 13.195312 -37.839844 7.867188 -34.011719 6.832031 -27.679688 L 4.035156 -10.589844 C 2.996094 -4.257812 6.816406 1.117188 13.148438 2.152344 Z M 18.683594 -7.242188 C 17.46875 -7.441406 16.652344 -8.574219 16.851562 -9.789062 L 19.230469 -24.300781 C 19.4375 -25.566406 20.570312 -26.382812 21.785156 -26.183594 C 23.054688 -25.976562 23.867188 -24.839844 23.660156 -23.574219 L 21.285156 -9.066406 C 21.085938 -7.847656 19.953125 -7.03125 18.683594 -7.242188 Z M 18.683594 -7.242188 "/></g></g></g><g fill="#ffffff" fill-opacity="1"><g transform="translate(280.577211, 203.325175)"><g><path d="M 12.941406 3.15625 L 36.382812 8.878906 C 37.628906 9.179688 38.835938 8.410156 39.136719 7.160156 L 40.695312 0.785156 C 41 -0.460938 40.273438 -1.652344 39.027344 -1.957031 L 19.421875 -6.738281 C 18.222656 -7.03125 17.496094 -8.226562 17.789062 -9.421875 L 20.808594 -21.792969 C 21.113281 -23.039062 22.304688 -23.761719 23.503906 -23.46875 L 43.109375 -18.6875 C 44.355469 -18.382812 45.546875 -19.105469 45.851562 -20.355469 L 47.40625 -26.730469 C 47.710938 -27.976562 46.988281 -29.167969 45.738281 -29.472656 L 22.300781 -35.191406 C 16.066406 -36.710938 10.460938 -33.304688 8.941406 -27.074219 L 4.835938 -10.246094 C 3.316406 -4.015625 6.710938 1.636719 12.941406 3.15625 Z M 12.941406 3.15625 "/></g></g></g><g fill="#ffffff" fill-opacity="1"><g transform="translate(319.898029, 212.852216)"><g><path d="M 4.304688 1.445312 L 27.414062 9.199219 C 33.351562 11.191406 39.117188 8.285156 41.109375 2.34375 L 42.128906 -0.695312 C 44.125 -6.636719 41.265625 -12.382812 35.324219 -14.378906 L 24.285156 -18.082031 C 23.113281 -18.476562 22.492188 -19.722656 22.886719 -20.894531 C 23.292969 -22.109375 24.542969 -22.730469 25.710938 -22.339844 L 44.84375 -15.917969 C 46.0625 -15.511719 47.3125 -16.132812 47.71875 -17.347656 L 49.492188 -22.636719 C 49.902344 -23.851562 49.28125 -25.101562 48.0625 -25.507812 L 24.953125 -33.261719 C 19.011719 -35.257812 13.265625 -32.398438 11.273438 -26.457031 L 10.25 -23.414062 C 8.257812 -17.476562 11.117188 -11.726562 17.058594 -9.734375 L 28.050781 -6.042969 C 29.269531 -5.636719 29.875 -4.339844 29.480469 -3.171875 C 29.089844 -2 27.839844 -1.378906 26.625 -1.789062 L 7.539062 -8.191406 C 6.320312 -8.601562 5.070312 -7.980469 4.664062 -6.761719 L 2.875 -1.429688 C 2.464844 -0.214844 3.085938 1.035156 4.304688 1.445312 Z M 4.304688 1.445312 "/></g></g></g></svg>